<svg fill="none" height="11" viewBox="0 0 27 11" width="27" xmlns="http://www.w3.org/2000/svg"><g fill="#bfbfc0"><path d="m6.5925 5.52273-1.96747-3.79529c-.54142-1.001152-1.65363-1.488988-2.76584-1.212305-1.112211.276683-1.85919 1.225045-1.85919 2.360905v6.64039c0 .08373.0679072.15108.152332.15108h1.855518c.08443 0 .15233-.06735.15233-.15108v-6.61309c0-.05642 0-.25666.22575-.31308.22391-.05643.32852.13106.35422.1802l3.65964 6.73687c.05323.09829.15601.15836.26796.15836h1.92159c.08443 0 .15233-.06735.15233-.15108v-8.810167c0-.083733-.0679-.151081-.15233-.151081h-1.8445c-.08443 0-.15234.067348-.15234.151081v4.816467z"/><path d="m14.5919.101318c-2.7553 0-4.99717 2.248612-4.99717 5.012272 0 2.76365 2.24187 5.01231 4.99717 5.01231 2.7554 0 4.9973-2.24866 4.9973-5.01231 0-2.76366-2.2419-5.012272-4.9973-5.012272zm0 7.894362c-1.5834 0-2.8734-1.29209-2.8734-2.88209s1.2882-2.8821 2.8734-2.8821c1.5853 0 2.8735 1.2921 2.8735 2.8821s-1.2882 2.88209-2.8735 2.88209z"/><path d="m23.7853 7.49238c-.6332 0-1.1471-.50968-1.1471-1.13767v-5.650162c0-.083733-.0679-.151081-.1524-.151081h-1.894c-.0844 0-.1523.067348-.1523.151081v5.770292c0 1.76386 1.4407 3.19278 3.2191 3.19278h3.1898c.0845 0 .1524-.06735.1524-.15109v-1.87306c0-.08374-.0679-.15109-.1524-.15109z"/></g></svg>