<svg width="25" height="24" viewBox="0 0 25 24" fill="none" xmlns="http://www.w3.org/2000/svg">
<g id="ic_circle question mark">
<path id="Oval (Stroke)" fill-rule="evenodd" clip-rule="evenodd" d="M12.8848 21C17.8553 21 21.8848 16.9706 21.8848 12C21.8848 7.02944 17.8553 3 12.8848 3C7.9142 3 3.88477 7.02944 3.88477 12C3.88477 16.9706 7.9142 21 12.8848 21ZM12.8848 22C18.4076 22 22.8848 17.5228 22.8848 12C22.8848 6.47715 18.4076 2 12.8848 2C7.36192 2 2.88477 6.47715 2.88477 12C2.88477 17.5228 7.36192 22 12.8848 22Z" fill="#999999"/>
<path id="?" d="M11.9408 13.7824C11.9474 12.1527 12.3859 11.6554 13.1712 11.1645C13.7341 10.798 14.1726 10.3922 14.166 9.79013C14.1726 9.13566 13.6621 8.71026 13.0272 8.70372C12.4186 8.71026 11.8492 9.11603 11.823 9.88175H9.96436C9.99708 8.04271 11.3649 7.15918 13.0403 7.15918C14.8663 7.15918 16.1556 8.10815 16.1556 9.72468C16.1556 10.8045 15.5993 11.4852 14.7419 12.0022C14.0024 12.4407 13.6752 12.8661 13.6686 13.7824V13.9263H11.9408V13.7824ZM11.7445 15.785C11.7314 15.1829 12.2288 14.6921 12.844 14.6986C13.4265 14.6921 13.9304 15.1829 13.9304 15.785C13.9304 16.3937 13.4265 16.8845 12.844 16.8845C12.2288 16.8845 11.7314 16.3937 11.7445 15.785Z" fill="#999999"/>
</g>
</svg>
