<svg width="20" height="20" viewBox="0 0 100 100" fill="none" xmlns="http://www.w3.org/2000/svg">
<g clip-path="url(#clip0_5283_69970)">
<path d="M84.9115 14.2064C75.9002 5.4169 63.5825 0 50 0C36.4175 0 24.0998 5.4169 15.0885 14.2064C5.78011 23.2878 0 35.9687 0 50C0 55.9319 1.03383 61.6225 2.93027 66.9019C4.89675 72.3772 7.78939 77.4101 11.4227 81.81C12.5292 80.8216 14.772 79.2469 19.1148 77.4879C25.8341 74.7652 36.7405 70.6753 36.7405 70.6753L36.747 70.7142L36.9351 69.4106L38.2634 66.9006L39.4023 64.7486L39.8472 64.7642L39.8809 61.1542C39.8809 61.1542 38.1453 58.761 37.1024 56.2536C36.0582 53.7449 35.5731 51.1895 35.5731 51.1895C35.5731 51.1895 31.4935 50.8937 30.8268 45.5845C30.5894 43.6933 31.3158 43.0343 32.3458 42.6905L32.063 42.6931C32.063 42.6931 30.7555 36.1114 30.9033 32.2978C30.9877 30.1666 31.1939 28.1715 31.7076 26.7356C32.6623 24.0712 35.9142 22.0153 35.9142 22.0153C35.9142 22.0153 36.4422 18.8307 39.9873 16.9356C47.2072 13.0779 54.7956 13.873 60.5562 16.9291C61.9156 17.649 63.0947 19.1862 64.2038 20.2719C66.5685 22.5873 68.6025 25.1453 69.1032 28.8992C69.9113 34.9764 67.6672 42.2936 67.6672 42.2936L67.365 42.2975C70.6351 44.1019 69.0668 48.6795 67.1496 50.1673C65.8149 51.2038 64.6228 51.2219 64.6228 51.2219C64.6228 51.2219 63.9625 54.9992 62.7692 57.5585C61.5758 60.1191 59.8506 61.4616 59.8506 61.4616L60.1204 65.4582L60.9402 65.4867L61.7353 66.9006L63.3282 69.7349L63.3192 71.39L63.4229 71.4406L63.467 71.189C63.467 71.189 75.0999 75.7147 81.6103 78.6982C85.1191 80.3066 87.1388 81.4663 88.2569 82.1953C92.0407 77.7046 95.0475 72.5367 97.071 66.9019C98.9675 61.6225 100.001 55.9319 100.001 50C100.001 35.9687 94.2212 23.2878 84.9128 14.2064H84.9115Z" fill="white"/>
<path d="M36.3502 41.0471C38.436 38.1998 37.074 30.5959 39.8279 28.4725C43.7141 25.4786 54.7801 24.1633 59.4265 27.5489C61.0389 28.7228 62.0014 30.0355 62.5293 32.0811C63.2778 34.9764 63.2907 38.777 64.1948 40.8564C64.7124 42.0472 66.33 41.7423 67.3158 42.269C67.3327 42.278 67.3482 42.2884 67.3651 42.2975L67.6673 42.2936C67.6673 42.2936 69.9127 34.9764 69.1033 28.8992C68.6026 25.1466 66.5699 22.5873 64.2039 20.2719C63.0962 19.1862 61.9157 17.649 60.5563 16.9291C54.7957 13.873 47.2073 13.0779 39.9874 16.9356C36.4423 18.8307 35.9143 22.0152 35.9143 22.0152C35.9143 22.0152 32.6624 24.0712 31.7077 26.7356C31.194 28.1715 30.9878 30.1665 30.9034 32.2978C30.7543 36.1114 32.0631 42.6931 32.0631 42.6931L32.3459 42.6905C33.6417 42.2573 35.4188 42.3209 36.3515 41.0471H36.3502Z" fill="#EB3F3A"/>
<path d="M49.8885 78.104C50.4631 78.0846 51.0391 77.9938 51.602 77.855L48.363 78.0003C48.865 78.0807 49.3761 78.1222 49.8898 78.1053L49.8885 78.104Z" fill="#FFC7A4"/>
<path fill-rule="evenodd" clip-rule="evenodd" d="M39.846 64.7642L39.8395 65.5205C39.8395 65.5205 39.7591 66.003 40.2974 66.9006H38.2621L39.401 64.7487L39.846 64.7642ZM42.4844 75.3777L41.2184 77.3299L41.2209 77.3312L38.2128 79.766L36.7471 70.7158L36.9352 69.4121L38.2634 66.9021H40.2987C40.5218 67.2757 40.85 67.718 41.3364 68.2291C42.9955 69.9686 46.4731 72.4838 46.4731 72.4838L48.3073 77.9915C45.1941 77.4713 42.4844 75.3777 42.4844 75.3777Z" fill="#063D3B"/>
<path fill-rule="evenodd" clip-rule="evenodd" d="M60.2164 66.9019L60.1204 65.4595L60.9402 65.488L61.7346 66.9005H61.7354L63.3283 69.7348L63.3192 71.39L63.423 71.4406L61.9299 79.994L59.1981 77.9484L57.3445 74.8793C57.3445 74.8793 55.0797 76.7576 52.3232 77.6487L53.6917 72.7598C53.6917 72.7598 56.4028 70.888 58.0359 69.4365C59.669 67.9849 60.2203 66.9537 60.2203 66.9537L60.2216 66.9524L60.2178 66.9019H60.2164Z" fill="#063D3B"/>
<path d="M81.6091 78.6981C75.0987 75.7134 63.3011 71.0839 63.3011 71.0839V71.4082L61.9287 79.994L59.1969 77.9484L57.3433 74.8793C57.3433 74.8793 55.0772 76.7563 52.322 77.6487L52.2727 77.8251L51.6008 77.855C51.0391 77.9938 50.4632 78.0846 49.8873 78.104C49.3749 78.1209 48.8625 78.0807 48.3605 77.999L48.3099 78.0016L48.306 77.9899C45.1929 77.4697 42.4831 75.3761 42.4831 75.3761L41.2171 77.3283L38.209 79.7631L36.7432 70.7129L36.7367 70.674C36.7367 70.674 25.8303 74.7639 19.1111 77.4866C14.7682 79.2455 12.5254 80.819 11.4189 81.8087C11.6408 82.0772 11.8665 82.3431 12.0935 82.6077C21.263 93.2561 34.8429 99.9986 49.9975 99.9986C65.1521 99.9986 78.3403 93.4493 87.5021 83.0643C87.7563 82.7764 88.0067 82.4871 88.2531 82.194C87.1363 81.4663 85.1153 80.3053 81.6065 78.6968L81.6091 78.6981Z" fill="#258885"/>
<path d="M39.8393 65.5204C39.8393 65.5204 39.7602 66.0042 40.2972 66.9006H41.4205C40.449 66.1339 39.8393 65.5204 39.8393 65.5204Z" fill="#FFC7A4"/>
<path d="M67.3636 42.2975C67.3468 42.2885 67.3325 42.2781 67.3143 42.269C66.3285 41.7423 64.7122 42.0472 64.1934 40.8564C63.2893 38.7771 63.2763 34.9777 62.5278 32.0812C61.9999 30.0356 61.0374 28.7228 59.4251 27.5489C54.7787 24.1621 43.7127 25.4787 39.8264 28.4725C37.0725 30.5946 38.4346 38.1998 36.3487 41.0471C35.4148 42.3222 33.639 42.2573 32.3431 42.6906C31.3145 43.0343 30.5868 43.6933 30.8242 45.5845C31.4909 50.8951 35.5704 51.1895 35.5704 51.1895C35.5704 51.1895 36.0543 53.7449 37.0998 56.2536C38.144 58.7623 39.8783 61.1542 39.8783 61.1542C39.8783 61.1542 42.1211 63.3282 45.0111 64.9419C46.6637 65.8642 48.5277 66.6036 50.3048 66.649C51.7018 66.684 53.3142 66.0639 54.7825 65.2779C57.2095 63.9781 59.2396 62.2244 59.2396 62.2244C59.2396 62.2244 58.0734 63.685 56.3365 65.331C55.7891 65.8499 55.1847 66.3869 54.5426 66.9032C52.8485 68.2626 50.8898 69.4729 49.0076 69.7971C46.2706 70.2693 43.221 68.3249 41.4193 66.9032H40.296C40.5191 67.2755 40.8485 67.7191 41.3337 68.2302C42.9927 69.971 46.4704 72.4848 46.4704 72.4848L48.3046 77.9925C48.3227 77.9951 48.3409 77.999 48.3591 78.0016L51.598 77.8563C51.8419 77.7954 52.0819 77.7266 52.3193 77.6501L53.6878 72.7611C53.6878 72.7611 56.4001 70.8893 58.0319 69.4378C59.665 67.9863 60.2163 66.9551 60.2163 66.9551L60.2124 66.9032L60.1151 65.4608L59.8453 61.4642C59.8453 61.4642 61.5705 60.1204 62.7639 57.5611C63.9573 55.0005 64.6176 51.2245 64.6176 51.2245C64.6176 51.2245 65.8096 51.2064 67.1444 50.1699C69.0603 48.6821 70.6298 44.1045 67.3597 42.3001L67.3636 42.2975ZM54.0639 37.55C56.9319 36.2165 59.0722 37.7017 59.163 37.7653C59.4043 37.9365 59.4601 38.2725 59.2889 38.5137C59.1851 38.6603 59.0203 38.7394 58.8517 38.7394C58.7454 38.7394 58.6377 38.707 58.5443 38.6422C58.4704 38.5916 56.7983 37.4643 54.5166 38.5228C54.2494 38.6473 53.929 38.5306 53.8045 38.2621C53.68 37.9936 53.7967 37.6745 54.0652 37.55H54.0639ZM50.0531 41.7787C50.1841 41.5141 50.5058 41.4064 50.7718 41.5387C51.0364 41.671 51.144 41.994 51.0104 42.2586C50.978 42.3235 50.943 42.3987 50.9054 42.4817C50.4124 43.5882 49.5901 46.1579 49.9286 47.564C50.0674 48.1373 50.4553 48.4681 50.8652 48.817C51.2867 49.175 51.7628 49.5797 51.8147 50.2439C51.8601 50.8574 51.5306 51.5345 50.7471 52.4387C50.6407 52.5606 50.4916 52.6229 50.3424 52.6229C50.2179 52.6229 50.0921 52.5801 49.9909 52.4918C49.7665 52.2973 49.7431 51.96 49.9364 51.7356C50.633 50.934 50.7601 50.5267 50.7458 50.3243C50.7302 50.1168 50.5175 49.9261 50.1725 49.6329C49.6977 49.2295 49.1075 48.7275 48.8883 47.8143C48.4927 46.176 49.2437 43.762 49.7431 42.4947C49.8702 42.1717 49.9818 41.9214 50.0531 41.7787ZM40.6021 38.2245C40.6903 38.1583 42.7956 36.6225 45.6934 37.882C45.9645 38.0001 46.0903 38.3153 45.971 38.5877C45.853 38.8601 45.5365 38.9846 45.2666 38.8653C42.9564 37.8626 41.3116 39.0326 41.2429 39.0832C41.1469 39.1532 41.0353 39.187 40.9251 39.187C40.7603 39.187 40.5982 39.1117 40.4944 38.9703C40.3193 38.733 40.366 38.3996 40.6021 38.2232V38.2245ZM42.8916 45.6831C42.1509 45.6831 41.549 44.9191 41.549 43.976C41.549 43.3975 41.776 42.8877 42.1224 42.579C42.3403 42.3844 42.6049 42.2703 42.8916 42.2703C43.1782 42.2703 43.4286 42.378 43.6439 42.5622C44.0006 42.8683 44.2354 43.3871 44.2354 43.976C44.2354 44.9191 43.6348 45.6831 42.8916 45.6831ZM55.4869 56.7945C54.0938 57.5987 52.1065 57.9554 50.1608 57.9554C48.04 57.9554 45.9697 57.5313 44.7711 56.8023C44.5182 56.6479 44.4378 56.3184 44.5921 56.0655C44.7465 55.8139 45.0747 55.7308 45.3289 55.8865C47.3252 57.0993 52.4464 57.3121 54.9512 55.8644C55.2067 55.7166 55.5362 55.8035 55.6828 56.0603C55.8306 56.3171 55.7424 56.644 55.4869 56.7932V56.7945ZM56.893 45.722C56.151 45.722 55.5505 44.958 55.5505 44.0163C55.5505 43.2847 55.9137 42.662 56.4234 42.4195C56.57 42.3494 56.7283 42.3092 56.893 42.3092C57.0578 42.3092 57.2004 42.3455 57.3405 42.4091C57.862 42.6439 58.2356 43.273 58.2356 44.0163C58.2356 44.958 57.6337 45.722 56.8917 45.722H56.893Z" fill="#FFC7A4"/>
<path d="M52.2725 77.8252L52.3218 77.6488C52.0844 77.7253 51.8432 77.7954 51.6006 77.8551L52.2725 77.8252Z" fill="#258885"/>
<path d="M48.311 78.0017L48.3616 77.9991C48.3434 77.9965 48.3253 77.9926 48.3071 77.99L48.311 78.0017Z" fill="#FFDDC0"/>
<path d="M48.8884 47.8156C49.1076 48.7288 49.6991 49.2308 50.1726 49.6342C50.5177 49.9274 50.7304 50.1181 50.7459 50.3256C50.7615 50.5267 50.6331 50.9353 49.9365 51.7369C49.742 51.9613 49.7666 52.2986 49.991 52.4931C50.0922 52.5814 50.2167 52.6242 50.3425 52.6242C50.4917 52.6242 50.6409 52.5619 50.7472 52.44C51.532 51.5358 51.8615 50.8587 51.8148 50.2452C51.7642 49.581 51.2869 49.175 50.8653 48.8183C50.4541 48.4694 50.0675 48.1399 49.9287 47.5653C49.5902 46.1605 50.4126 43.5895 50.9055 42.483L49.742 42.496C49.2425 43.7646 48.4915 46.1773 48.8871 47.8156H48.8884Z" fill="#EDA07E"/>
<path d="M50.773 41.54C50.5058 41.4077 50.1854 41.5153 50.0544 41.78C49.9831 41.9226 49.8715 42.173 49.7444 42.496L50.9079 42.483C50.9443 42.4 50.9806 42.3248 51.013 42.2599C51.1453 41.9953 51.0376 41.6736 50.7743 41.54H50.773Z" fill="#EDA07E"/>
<path d="M50.1608 57.9568C52.1066 57.9568 54.0925 57.6001 55.4869 56.7958C55.7425 56.648 55.8307 56.3198 55.6828 56.0629C55.5349 55.8061 55.2068 55.7192 54.9512 55.8671C52.4464 57.3147 47.3253 57.102 45.3289 55.8891C45.0747 55.7335 44.7465 55.8165 44.5922 56.0681C44.4378 56.3211 44.5182 56.6505 44.7712 56.8049C45.9697 57.5339 48.0413 57.9581 50.1608 57.9581V57.9568Z" fill="#EDA07E"/>
<path d="M45.2667 38.8665C45.5378 38.9859 45.853 38.8613 45.971 38.5889C46.0891 38.3165 45.9645 38.0013 45.6934 37.8833C42.7956 36.6225 40.6903 38.1583 40.6021 38.2257C40.366 38.4022 40.3193 38.7355 40.4944 38.9729C40.5995 39.1143 40.7604 39.1895 40.9251 39.1895C41.0354 39.1895 41.1469 39.1558 41.2429 39.0858C41.3117 39.0352 42.9564 37.8638 45.2667 38.8678V38.8665Z" fill="#EB3F3A"/>
<path d="M54.514 38.5228C56.7957 37.463 58.4677 38.5915 58.5417 38.6421C58.6351 38.7083 58.7427 38.7394 58.8491 38.7394C59.0177 38.7394 59.1825 38.6616 59.2862 38.5137C59.4575 38.2724 59.4017 37.9377 59.1604 37.7652C59.0696 37.7017 56.9293 36.2151 54.0613 37.5499C53.7928 37.6744 53.6761 37.9935 53.8006 38.262C53.9251 38.5305 54.2455 38.6473 54.5127 38.5228H54.514Z" fill="#EB3F3A"/>
<path d="M54.7838 65.2766C53.3155 66.0627 51.7031 66.6827 50.3061 66.6477C48.529 66.6036 46.665 65.8642 45.0124 64.9406C42.1223 63.327 39.8796 61.153 39.8796 61.153L39.8458 64.7629L39.8394 65.5192C39.8394 65.5192 40.449 66.134 41.4206 66.8993C43.2223 68.3197 46.2732 70.2641 49.0089 69.7933C50.8898 69.469 52.8485 68.26 54.5439 66.8993C55.186 66.3844 55.7904 65.8473 56.3378 65.3272C58.0747 63.6811 59.2409 62.2205 59.2409 62.2205C59.2409 62.2205 57.2108 63.9743 54.7838 65.274V65.2766Z" fill="#F2B594"/>
<path d="M43.644 42.5635C43.4299 42.3793 43.1705 42.2716 42.8916 42.2716C42.6127 42.2716 42.3403 42.3858 42.1224 42.5803C41.7761 42.8891 41.5491 43.3988 41.5491 43.9774C41.5491 44.9204 42.151 45.6844 42.8916 45.6844C43.6323 45.6844 44.2355 44.9204 44.2355 43.9774C44.2355 43.3885 44.0007 42.8696 43.644 42.5635Z" fill="#330E0D"/>
<path d="M57.3406 42.4104C57.2005 42.3469 57.05 42.3105 56.8931 42.3105C56.7271 42.3105 56.5688 42.3508 56.4235 42.4208C55.9137 42.6634 55.5505 43.286 55.5505 44.0176C55.5505 44.9593 56.1511 45.7234 56.8931 45.7234C57.6351 45.7234 58.2369 44.9593 58.2369 44.0176C58.2369 43.2756 57.8634 42.6452 57.3419 42.4104H57.3406Z" fill="#330E0D"/>
</g>
<defs>
<clipPath id="clip0_5283_69970">
  <rect width="100" height="100" fill="white"/>
</clipPath>
</defs>
</svg>
