<svg fill="none" height="13" viewBox="0 0 93 13" width="93" xmlns="http://www.w3.org/2000/svg"><g clip-rule="evenodd" fill="#bfbfc0" fill-rule="evenodd"><path d="m2.17984 1.1136c0 .52731-.42834.95564-.95564.95564-.52731 0-.955645-.42833-.955645-.95564 0-.527306.428335-.955641.955645-.955641.5273 0 .95564.428335.95564.955641zm48.68426 1.68569h1.7652v-.00163c.1152 0 .1769.13467.1039.22228l-2.5295 3.00484 2.5295 3.00483c.073.08762.0113.22228-.1039.22228h-1.7652c-.0406 0-.0795-.01947-.1055-.05192l-2.1255-2.6852v2.60246c0 .07463-.06.13466-.1346.13466h-1.3613c-.0746 0-.1346-.06003-.1346-.13466v-8.05886c0-.074639.06-.13467.1346-.13467h1.3613c.0746 0 .1346.060031.1346.13467v4.47804l2.1255-2.6852c.026-.03245.0649-.05192.1055-.05192zm14.3651-1.841124h1.3612c.0746 0 .1347.060034.1347.134664v8.05886c0 .07464-.0601.13467-.1347.13467h-1.3612c-.0747 0-.1347-.06003-.1347-.13467v-8.05886c0-.07463.06-.134664.1347-.134664zm2.4516 5.106614c0-1.92588 1.5316-3.48671 3.4218-3.48671s3.4219 1.56083 3.4219 3.48671c0 1.92589-1.5317 3.48671-3.4219 3.48671s-3.4218-1.56082-3.4218-3.48671zm1.5982.00162c0 1.03028.8161 1.86586 1.8236 1.86586 1.0076 0 1.8237-.83558 1.8237-1.86586 0-1.03027-.8161-1.86585-1.8237-1.86585-1.0075 0-1.8236.83558-1.8236 1.86585zm23.3409-5.108234h-1.3613c-.0746 0-.1347.060034-.1347.134664v8.05886c0 .07464.0601.13467.1347.13467h1.3613c.0746 0 .1346-.06003.1346-.13467v-8.05886c0-.07463-.06-.134664-.1346-.134664zm-13.4942 1.737674c1.7877 0 3.2381 1.48738 3.2385 3.32365-.0004 1.83629-1.4508 3.32365-3.2385 3.32365-.7609 0-1.4586-.27095-2.0119-.722v.49486c0 .07463-.06.13466-.1346.13466h-1.3613c-.0746 0-.1346-.06003-.1346-.13466v-8.02317c0-.07463.06-.134664.1346-.134664h1.3613c.0746 0 .1346.060034.1346.134664v2.32502c.5533-.45105 1.251-.72201 2.0119-.72201zm-.1687 5.20816c1.0173 0 1.8415-.84369 1.8415-1.8837s-.8242-1.8837-1.8415-1.8837-1.8415.84369-1.8415 1.8837.8242 1.8837 1.8415 1.8837zm10.8106-4.97003c0-.07464-.0601-.13467-.1347-.13467h-1.3613c-.0746 0-.1346.06003-.1346.13467v.48836c-.5533-.45105-1.251-.722-2.0119-.722-1.788 0-3.2385 1.48781-3.2385 3.32446s1.4505 3.32446 3.2385 3.32446c.7609 0 1.4586-.27095 2.0119-.722v.48837c0 .07463.06.13466.1346.13466h1.3613c.0746 0 .1347-.06003.1347-.13466zm-3.4721 4.97614c-1.0173 0-1.8416-.84369-1.8416-1.8837s.8243-1.8837 1.8416-1.8837 1.8415.84369 1.8415 1.8837-.8242 1.8837-1.8415 1.8837zm-55.7888-5.20816c-.7609 0-1.4586.27096-2.0118.72201v-.48837c0-.07463-.0601-.13466-.1347-.13466h-1.3613c-.0746 0-.1346.06003-.1346.13466v8.92851c0 .0746.06.1347.1346.1347h1.3613c.0746 0 .1347-.0601.1347-.1347v-3.23523c.5532.45105 1.2509.72201 2.0118.72201 1.788 0 3.2385-1.48782 3.2385-3.32446 0-1.83665-1.4505-3.32447-3.2385-3.32447zm-.1703 5.20816c-1.0173 0-1.8415-.84369-1.8415-1.88369 0-1.04001.8242-1.8837 1.8415-1.8837s1.8415.84369 1.8415 1.8837c0 1.04-.8242 1.88369-1.8415 1.88369zm-5.0184-3.65678c-.7171 0-1.298.58084-1.298 1.29798h-.0016v3.56459c0 .07463-.06.13466-.1346.13466h-1.3613c-.0746 0-.1347-.06003-.1347-.13466v-6.18165c0-.07464.0601-.13467.1347-.13467h1.3613c.0746 0 .1346.06003.1346.13467v.56624c.4689-.45916 1.1001-.75607 1.7994-.79014.0762-.00487.1395.05841.1395.13466v1.27365c0 .07463-.06.13467-.1347.13467zm18.8404 1.29798c0-.71714.5808-1.29798 1.298-1.29798h.5046c.0746 0 .1346-.06004.1346-.13467v-1.27365c0-.07625-.0632-.13953-.1395-.13466-.6993.03407-1.3304.33098-1.7993.79014v-.56624c0-.07464-.0601-.13467-.1347-.13467h-1.3613c-.0746 0-.1346.06003-.1346.13467v6.18165c0 .07463.06.13466.1346.13466h1.3613c.0746 0 .1347-.06003.1347-.13466v-3.56459zm-34.76821 3.70093h-1.36127v-.00162c-.07463 0-.13628-.06003-.13628-.13467v-3.42343c0-.82584-.69605-1.48944-1.53487-1.43589-.76419.05029-1.34342.71875-1.34342 1.48619v3.37313c0 .07464-.06003.13467-.13466.13467h-1.36126c-.07464 0-.13467-.06003-.13467-.13467v-6.18165c0-.07463.06003-.13466.13467-.13466h1.36126c.07463 0 .13466.06003.13466.13466v.56625c.49811-.48999 1.16981-.79339 1.93725-.79339.76743 0 1.38884.24499 1.8626.73336.47377.48187.71065 1.15683.71065 2.02648v3.65058c0 .07463-.06003.13466-.13466.13466zm3.35681-5.11205h1.3093c.0747 0 .1347-.06003.1347-.13466v-1.06922c0-.07463-.06-.13466-.1347-.13466h-1.3093v-1.53811c0-.07464-.06-.13467-.1347-.13467h-1.3726c-.0746 0-.1346.06003-.1346.13467v1.53649h-.6344c-.0747 0-.1347.06003-.1347.13466v1.06922c0 .07463.06.13466.1347.13466h.6344v2.71117c0 1.32556 1.0757 2.40127 2.4012 2.40127h.55c.0747 0 .1347-.06004.1347-.13467v-1.36613c0-.07463-.06-.13466-.1347-.13466h-.4543c-.4721 0-.855-.38291-.855-.85505zm-10.85432-1.34069h-1.36126c-.074634 0-.134666.06003-.134666.13467v6.18164c0 .07464.060032.13467.134666.13467h1.36126c.07464 0 .13467-.06003.13467-.13467v-6.18164c0-.07464-.06003-.13467-.13467-.13467zm19.51352 3.56949c-.0081.06977-.0697.12331-.1411.12331v.00162h-4.968c.2206.9021.8372 1.57219 1.7749 1.57219.6279 0 1.0319-.30179 1.3873-.77231.0259-.03569.0681-.05678.1119-.05678h1.4197c.1038 0 .1704.10708.1282.20118-.5306 1.1974-1.6939 2.02973-3.0471 2.02973-1.8544 0-3.3585-1.56083-3.3585-3.48671 0-1.92589 1.5041-3.48671 3.3585-3.48671 1.8545 0 3.3586 1.56082 3.3586 3.48671 0 .13142-.0098.25959-.0244.38777zm-3.3342-2.47428c-.8956 0-1.4845.61005-1.7425 1.4505h3.4851c-.258-.84045-.8469-1.4505-1.7426-1.4505zm23.0928 5.22091v-6.18165c0-.07464-.0601-.13467-.1347-.13467h-1.3613c-.0746 0-.1346.06003-.1346.13467v.48836c-.5533-.45105-1.2509-.722-2.0119-.722-1.788 0-3.2385 1.48781-3.2385 3.32446s1.4505 3.32446 3.2385 3.32446c.761 0 1.4586-.27095 2.0119-.722v.48837c0 .07463.06.13466.1346.13466h1.3613c.0746 0 .1347-.06003.1347-.13466zm-3.4721-1.20551c-1.0173 0-1.8415-.84369-1.8415-1.8837s.8242-1.8837 1.8415-1.8837 1.8415.84369 1.8415 1.8837-.8242 1.8837-1.8415 1.8837zm23.4725-4.8697c.3253.17813.5809.43759.7667.77837h1.8705c-.2556-.80548-.7203-1.42896-1.3941-1.87042-.6738-.44922-1.4677-.67382-2.3816-.67382-.7745 0-1.4793.17813-2.1144.53441-.6274.34852-1.1231.84033-1.4871 1.47543-.3562.62734-.5344 1.33989-.5344 2.13763 0 .79773.1782 1.51028.5344 2.13762.364.62735.8597 1.11916 1.4871 1.47543.6351.34853 1.3437.52279 2.126.52279.697 0 1.3244-.14328 1.882-.42985.5654-.29431 1.0262-.68156 1.3825-1.16175s.5886-1.00298.6971-1.56837v-1.41734h-4.3915v1.24308h2.7883c-.124.58862-.3834 1.04945-.7784 1.38248-.395.3253-.9023.48794-1.5219.48794-.5034 0-.9449-.10843-1.3244-.32529s-.6777-.52666-.8946-.9294c-.2091-.40275-.3137-.87519-.3137-1.41734 0-.52667.1046-.99137.3137-1.39411s.4996-.71254.8713-.92941c.3718-.21686.7978-.32529 1.278-.32529.4337 0 .8132.08907 1.1385.26721z"/><path d="m50.7591 2.85118c.0259-.03245.0649-.05192.1054-.05192h1.7653v-.00162c.0074 0 .0146.00055.0215.00162.0078.0012.0154.00305.0225.00547.0855.02887.1228.13956.0598.21518l-2.5294 3.00484 2.5294 3.00484c.073.08761.0114.22227-.1038.22227h-1.7653c-.0405 0-.0795-.01947-.1054-.05191l-2.1255-2.68521v2.60246c0 .07463-.06.13466-.1347.13466h-1.3612c-.0747 0-.1347-.06003-.1347-.13466v-8.05886c0-.074639.06-.134671.1347-.134671h1.3612c.0747 0 .1347.060032.1347.134671v4.47804zm-2.0811 2.55757 2.0462-2.58513.0002-.00018c.0339-.04241.0853-.06859.1401-.06859h1.7533c.0038-.00105.0078-.00162.012-.00162.1534 0 .2347.179.1379.29511l-.0001.00017-2.5054 2.97624 2.5054 2.97624.0001.00017c.0968.11611.0155.29511-.1379.29511h-1.7653c-.0548 0-.1062-.02618-.1401-.06859l-.0002-.00018-2.0462-2.58512v2.47482c0 .09916-.0799.17907-.1791.17907h-1.3612c-.0992 0-.1791-.07991-.1791-.17907v-8.05886c0-.099161.0799-.179074.1791-.179074h1.3612c.0992 0 .1791.079913.1791.179074zm-24.6131.14253c0 .00413-.0006.00814-.0016.01193v3.55266c0 .09916-.0799.17907-.1791.17907h-1.3612c-.0992 0-.1791-.07991-.1791-.17907v-6.18165c0-.09916.0799-.17907.1791-.17907h1.3612c.0992 0 .1791.07991.1791.17907v.46325c.4675-.42564 1.0788-.69859 1.7524-.73149.0001 0 .0002-.00001.0004-.00001l.0021.04435-.0028-.04432c.0001 0 .0002-.00001.0003-.00002.1034-.00639.1865.07895.1865.179v1.27365c0 .09916-.08.17907-.1791.17907h-.5046c-.6926 0-1.2536.56097-1.2536 1.25358zm-.0016-2.09336c-.015.01402-.0298.02821-.0444.04255v-.56625c0-.07463-.06-.13467-.1347-.13467h-1.3612c-.0747 0-.1347.06004-.1347.13467v6.18165c0 .07464.06.13467.1347.13467h1.3612c.0747 0 .1347-.06003.1347-.13467v-3.56459h.0016m20.1367 3.56459c0 .07464-.06.13467-.1346.13467h-1.3613c-.0746 0-.1347-.06003-.1347-.13467v-6.18165c0-.07463.0601-.13467.1347-.13467h1.3613c.0746 0 .1346.06004.1346.13467v.56625c.0147-.01434.0295-.02852.0444-.04254.464-.43492 1.0775-.7146 1.755-.74761.0762-.00487.1395.05841.1395.13466v1.27365c0 .07463-.06.13467-.1347.13467h-.5046c-.7171 0-1.2979.58084-1.2979 1.29798h-.0017zm1.7969-6.44989c-.6737.0329-1.285.30585-1.7525.73149v-.46325c0-.09916-.0799-.17907-.179-.17907h-1.3613c-.0991 0-.1791.07991-.1791.17907v6.18165c0 .09916.08.17907.1791.17907h1.3613c.0991 0 .179-.07991.179-.17907v-3.55264c.0011-.0038.0017-.00781.0017-.01195 0-.69261.5609-1.25358 1.2535-1.25358h.5046c.0992 0 .1791-.07991.1791-.17907v-1.27365c0-.10006-.083-.18539-.1864-.179zm-37.92472 6.63064c-.00475 0-.00933-.00075-.01363-.00213-.0923-.00691-.16706-.08336-.16706-.17856v-3.42344c0-.80032-.6745-1.44345-1.48758-1.39158-.73891.04865-1.30189.69588-1.30189 1.44188v3.37314c0 .09915-.07992.17907-.17907.17907h-1.36126c-.09916 0-.17907-.07992-.17907-.17907v-6.18166c0-.09915.07991-.17906.17907-.17906h1.36126c.09915 0 .17907.07991.17907.17906v.4629c.49748-.45548 1.15131-.73445 1.89284-.73445.77774 0 1.4112.24872 1.8944.74678.48399.49235.72325 1.17973.72325 2.05747v3.65058c0 .09916-.07991.17907-.17907.17907zm.78528-5.85613c-.47376-.48837-1.09517-.73336-1.8626-.73336-.74486 0-1.39955.28581-1.89284.75064-.01495.01409-.02976.02834-.04441.04275v-.56625c0-.07463-.06003-.13466-.13466-.13466h-1.36126c-.07464 0-.13467.06003-.13467.13466v6.18166c0 .07463.06003.13466.13467.13466h1.36126c.07463 0 .13466-.06003.13466-.13466v-3.37314c0-.76743.57923-1.4359 1.34342-1.48619.83882-.05355 1.53486.61005 1.53486 1.43589v3.42344c0 .07463.06166.13466.13629.13466v.00162h1.36126c.07464 0 .13467-.06003.13467-.13466v-3.65058c0-.86965-.23688-1.5446-.71065-2.02648zm12.59204 2.92847c-.0081.06977-.0698.12331-.1411.12331v.00162h-4.9681c.0037.01487.0074.02967.0112.04441.2299.87959.8415 1.52778 1.7638 1.52778.6279 0 1.0319-.30178 1.3872-.7723.026-.0357.0682-.05679.112-.05679h1.4197c.1038 0 .1703.10708.1281.20119-.5305 1.19739-1.6938 2.02972-3.047 2.02972-1.8545 0-3.3585-1.56082-3.3585-3.48671s1.504-3.48671 3.3585-3.48671 3.3585 1.56082 3.3585 3.48671c0 .13142-.0097.2596-.0243.38777zm-.2467 1.08738c-.5371 1.21204-1.7154 2.05597-3.0875 2.05597-1.8806 0-3.4029-1.58229-3.4029-3.53112s1.5223-3.53112 3.4029-3.53112 3.4029 1.58229 3.4029 3.53112c0 .1336-.0098.26354-.0246.3928-.0103.08841-.0843.15581-.1717.16219-.0042.00137-.0088.00212-.0135.00212h-4.9109c.2285.86067.8256 1.48338 1.7178 1.48338.6091 0 1.0013-.29069 1.3516-.75437.0344-.04714.0899-.07472.1476-.07472h1.4197c.1372 0 .2235.1414.1686.26375zm40.7724-3.59318c-.0162 0-.0312-.00888-.039-.02314-.182-.33369-.4316-.58684-.7491-.7607-.3177-.17399-.6896-.26174-1.1172-.26174-.4732 0-.8913.10678-1.2555.31924-.3641.21239-.6488.5158-.8543.91151-.2053.39548-.3087.85296-.3087 1.37365 0 .53626.1034 1.00134.3085 1.39657.2131.39565.5055.69913.8774.91162.3718.21248.8055.31944 1.3023.31944.6114 0 1.108-.1603 1.4934-.47757.3742-.31555.6253-.74923.7517-1.30405h-2.733c-.0245 0-.0444-.01988-.0444-.0444v-1.24308c0-.02452.0199-.0444.0444-.0444h4.3914c.0246 0 .0444.01988.0444.0444v1.41734c0 .00281-.0002.00561-.0008.00837-.1097.57219-.3449 1.10112-.705 1.58646-.3605.48595-.8266.87748-1.3976 1.17468l-.0002.00011c-.5646.29014-1.199.43476-1.9023.43476-.7892 0-1.5053-.17586-2.1474-.52827l-.0006-.00031c-.6342-.36018-1.1356-.85764-1.5035-1.49176l-.0002-.00035c-.3605-.63473-.5402-1.35497-.5402-2.15956 0-.8046.1797-1.52484.5402-2.15956l.0001-.00015c.3679-.64191.8693-1.13955 1.5038-1.49208.6422-.36023 1.3545-.54008 2.1361-.54008.9215 0 1.7242.22657 2.4062.68124.6827.44734 1.1534 1.07937 1.4119 1.89397.0042.0135.0018.02823-.0065.03966-.0084.01142-.0217.01818-.0359.01818zm.4763-1.91483c-.6738-.44922-1.4677-.67382-2.3816-.67382-.7745 0-1.4793.17813-2.1144.53441-.6273.34852-1.123.84033-1.487 1.47543-.3563.62734-.5344 1.33989-.5344 2.13763s.1781 1.51028.5344 2.13763c.364.62735.8597 1.11916 1.487 1.47543.6351.34852 1.3438.52279 2.1261.52279.697 0 1.3243-.14329 1.882-.42985.5654-.29431 1.0262-.68157 1.3825-1.16176s.5886-1.00298.697-1.56837v-1.41734h-4.3914v1.24308h2.7882c-.0031.01488-.0063.02968-.0096.0444-.1275.56744-.3838 1.01347-.7688 1.33809-.395.32529-.9023.48794-1.5219.48794-.5034 0-.9449-.10844-1.3244-.3253s-.6777-.52666-.8945-.9294c-.2091-.40274-.3137-.87519-.3137-1.41734 0-.52667.1046-.99137.3137-1.39411s.4995-.71254.8713-.9294c.3718-.21687.7977-.3253 1.2779-.3253.4338 0 .8133.08907 1.1386.26721.3252.17813.5808.43759.7667.77837h1.8704c-.0047-.01486-.0095-.02966-.0143-.0444-.2585-.78403-.7184-1.3927-1.3798-1.82602zm-60.184-.83476c0 .55183-.44822 1.00004-1.00005 1.00004-.551826 0-1.000041-.44821-1.000041-1.00004s.448215-1.000045 1.000041-1.000045c.55183 0 1.00005.448215 1.00005 1.000045zm63.0049-.199838h1.3613c.0991 0 .179.079911.179.179068v8.05887c0 .09915-.0799.17906-.179.17906h-1.3613c-.0991 0-.1791-.07991-.1791-.17906v-8.05887c0-.099157.08-.179068.1791-.179068zm2.4073 5.151018c0-1.94961 1.5507-3.53111 3.4662-3.53111s3.4662 1.5815 3.4662 3.53111c0 1.94962-1.5507 3.53112-3.4662 3.53112s-3.4662-1.5815-3.4662-3.53112zm1.6869.00163c0 1.00672.7972 1.82145 1.7793 1.82145s1.7793-.81473 1.7793-1.82145c0-1.00673-.7972-1.82145-1.7793-1.82145s-1.7793.81472-1.7793 1.82145zm21.9353-5.152648h1.3612c.0992 0 .1791.079909.1791.179068v8.05887c0 .09916-.0799.17906-.1791.17906h-1.3612c-.0992 0-.1791-.07991-.1791-.17906v-8.05887c0-.099158.0799-.179068.1791-.179068zm-12.1329 1.737678c1.8133 0 3.2824 1.50834 3.2829 3.36807-.0005 1.85971-1.4696 3.36804-3.2829 3.36804-.7389 0-1.4188-.25193-1.9675-.67456v.40301c0 .09916-.0799.17907-.1791.17907h-1.3612c-.0992 0-.1791-.07991-.1791-.17907v-8.02317c0-.099157.0799-.179068.1791-.179068h1.3612c.0992 0 .1791.079912.1791.179068v2.23317c.5487-.42263 1.2286-.67456 1.9675-.67456zm-1.9675.73084c.546-.42969 1.2268-.68644 1.9675-.68644 1.7877 0 3.238 1.48738 3.2385 3.32366-.0005 1.83628-1.4508 3.32365-3.2385 3.32365-.7407 0-1.4215-.25675-1.9675-.68644-.0149-.01173-.0297-.02358-.0444-.03557v.49486c0 .07463-.06.13467-.1347.13467h-1.3612c-.0747 0-.1347-.06004-.1347-.13467v-8.02317c0-.07463.06-.134665.1347-.134665h1.3612c.0747 0 .1347.060035.1347.134665v2.32502c.0147-.01199.0295-.02384.0444-.03557zm1.7987 4.47732c.9919 0 1.7972-.82284 1.7972-1.83929s-.8053-1.8393-1.7972-1.8393c-.9918 0-1.7971.82285-1.7971 1.8393s.8053 1.83929 1.7971 1.83929zm10.676-5.1047c.0991 0 .1791.07991.1791.17907v6.18165c0 .09916-.08.17907-.1791.17907h-1.3613c-.0991 0-.1791-.07991-.1791-.17907v-.39653c-.5486.42263-1.2286.67457-1.9674.67457-1.8136 0-3.2829-1.50879-3.2829-3.36887s1.4693-3.36886 3.2829-3.36886c.7388 0 1.4188.25193 1.9674.67456v-.39652c0-.09916.08-.17907.1791-.17907zm-1.5404.63187c.0149.01172.0297.02358.0444.03556v-.48836c0-.07464.0601-.13467.1347-.13467h1.3613c.0746 0 .1346.06003.1346.13467v6.18165c0 .07463-.06.13467-.1346.13467h-1.3613c-.0746 0-.1347-.06004-.1347-.13467v-.48837c-.0147.01199-.0295.02384-.0444.03557-.5459.42969-1.2267.68644-1.9674.68644-1.788 0-3.2385-1.48782-3.2385-3.32447s1.4505-3.32446 3.2385-3.32446c.7407 0 1.4215.25675 1.9674.68644zm-3.5942 2.63964c0 1.01645.8053 1.8393 1.7971 1.8393.9919 0 1.7971-.82285 1.7971-1.8393 0-1.01644-.8052-1.83929-1.7971-1.83929-.9918 0-1.7971.82285-1.7971 1.83929zm-55.9591-2.69429c.5487-.42263 1.2286-.67457 1.9675-.67457 1.8136 0 3.2829 1.50879 3.2829 3.36887s-1.4693 3.36886-3.2829 3.36886c-.7389 0-1.4188-.25193-1.9675-.67456v3.14341c0 .0991-.0799.179-.179.179h-1.3613c-.0992 0-.1791-.0799-.1791-.179v-8.92854c0-.09916.0799-.17907.1791-.17907h1.3613c.0991 0 .179.07991.179.17907zm0 .05627c.546-.42969 1.2268-.68644 1.9675-.68644 1.788 0 3.2385 1.48782 3.2385 3.32447s-1.4505 3.32446-3.2385 3.32446c-.7407 0-1.4215-.25675-1.9675-.68643-.0149-.01173-.0297-.02359-.0444-.03557v3.23525c0 .0746-.06.1346-.1346.1346h-1.3613c-.0746 0-.1347-.06-.1347-.1346v-8.92854c0-.07463.0601-.13466.1347-.13466h1.3613c.0746 0 .1346.06003.1346.13466v.48837c.0147-.01199.0295-.02384.0444-.03557zm0 2.63803c0 1.01645.8053 1.83929 1.7971 1.83929.9919 0 1.7972-.82284 1.7972-1.83929s-.8053-1.8393-1.7972-1.8393c-.9918 0-1.7971.82285-1.7971 1.8393zm-15.7922-1.88622h1.3093c.0746 0 .1347-.06004.1347-.13467v-1.06922c0-.07463-.0601-.13466-.1347-.13466h-1.3093v-1.53811c0-.07464-.0601-.13467-.1347-.13467h-1.3726c-.0747 0-.1347.06003-.1347.13467v1.53649h-.6344c-.0746 0-.1346.06003-.1346.13466v1.06922c0 .07463.06.13466.1346.13466h.6344v2.71117c0 1.32557 1.0757 2.40127 2.4013 2.40127h.55c.0746 0 .1347-.06003.1347-.13467v-1.36612c0-.07464-.0601-.13467-.1347-.13467h-.4543c-.4721 0-.855-.38291-.855-.85505zm-1.6864.04278v2.66676c0 1.35009 1.0956 2.44567 2.4457 2.44567h.55c.0992 0 .1791-.07991.1791-.17907v-1.36612c0-.09916-.0799-.17907-.1791-.17907h-.4543c-.4476 0-.8106-.36303-.8106-.81065v-2.5759h1.2649c.0992 0 .1791-.07991.1791-.17907v-1.06922c0-.09915-.0799-.17906-.1791-.17906h-1.2649v-1.49371c0-.09916-.0799-.17907-.1791-.17907h-1.3726c-.0992 0-.1791.07991-.1791.17907v1.49208h-.59c-.0991 0-.179.07991-.179.17907v1.06922c0 .09915.0799.17907.179.17907zm-10.529222-1.42788h1.361262c.09916 0 .17907.07991.17907.17907v6.18165c0 .09916-.07991.17907-.17907.17907h-1.361262c-.099158 0-.179069-.07991-.179069-.17907v-6.18165c0-.09916.079912-.17907.179069-.17907zm15.798122 2.59011h3.4851c-.0046-.01488-.0093-.02968-.0141-.04441-.2649-.81744-.8487-1.40609-1.7285-1.40609-.8797 0-1.4636.58865-1.7285 1.40609-.0048.01473-.0095.02953-.014.04441zm.0607-.04441h3.3636c-.2629-.79804-.832-1.36169-1.6818-1.36169s-1.4189.56365-1.6818 1.36169zm24.8189-2.36683v6.18165c0 .09916-.0799.17907-.179.17907h-1.3613c-.0991 0-.1791-.07991-.1791-.17907v-.39653c-.5486.42263-1.2286.67457-1.9674.67457-1.8136 0-3.2829-1.50879-3.2829-3.36887s1.4693-3.36886 3.2829-3.36886c.7388 0 1.4188.25193 1.9674.67456v-.39652c0-.09916.08-.17907.1791-.17907h1.3613c.0991 0 .179.07991.179.17907zm-1.675 0c0-.07464.0601-.13467.1347-.13467h1.3613c.0746 0 .1346.06003.1346.13467v6.18165c0 .07463-.06.13467-.1346.13467h-1.3613c-.0746 0-.1347-.06004-.1347-.13467v-.48837c-.0147.01199-.0295.02384-.0444.03557-.5459.42969-1.2267.68644-1.9674.68644-1.788 0-3.2385-1.48782-3.2385-3.32447s1.4505-3.32446 3.2385-3.32446c.7407 0 1.4215.25675 1.9674.68644.0149.01172.0297.02358.0444.03556zm-3.6386 3.09244c0 1.01645.8053 1.8393 1.7971 1.8393s1.7971-.82285 1.7971-1.8393c0-1.01644-.8053-1.83929-1.7971-1.83929s-1.7971.82285-1.7971 1.83929zm-34.67135-3.95717c.52731 0 .95565-.42833.95565-.95564 0-.527306-.42834-.955642-.95565-.955642-.527302 0-.955638.428336-.955638.955642 0 .52731.428336.95564.955638.95564zm65.36625-1.111075h-1.3613c-.0746 0-.1346.060035-.1346.134665v8.05887c0 .07463.06.13466.1346.13466h1.3613c.0746 0 .1346-.06003.1346-.13466v-8.05887c0-.07463-.06-.134665-.1346-.134665zm4.5122 1.619905c-1.8902 0-3.4218 1.56083-3.4218 3.48671 0 1.92589 1.5316 3.48672 3.4218 3.48672s3.4218-1.56083 3.4218-3.48672c0-1.92588-1.5316-3.48671-3.4218-3.48671zm0 5.35419c-1.0076 0-1.8237-.83558-1.8237-1.86585 0-1.03028.8161-1.86586 1.8237-1.86586s1.8237.83558 1.8237 1.86586c0 1.03027-.8161 1.86585-1.8237 1.86585zm20.156-6.974095h1.3612c.0747 0 .1347.060035.1347.134665v8.05887c0 .07463-.06.13466-.1347.13466h-1.3612c-.0746 0-.1347-.06003-.1347-.13466v-8.05887c0-.07463.0601-.134665.1347-.134665zm-10.4601 5.062145c0 1.04001-.8243 1.8837-1.8416 1.8837-1.0172 0-1.8415-.84369-1.8415-1.8837s.8243-1.8837 1.8415-1.8837c1.0173 0 1.8416.84369 1.8416 1.8837zm3.6554.0061c0 1.04001.8242 1.88371 1.8415 1.88371s1.8415-.8437 1.8415-1.88371-.8242-1.8837-1.8415-1.8837-1.8415.84369-1.8415 1.8837zm-55.9591.00001c0 1.04001.8243 1.8837 1.8415 1.8837 1.0173 0 1.8416-.84369 1.8416-1.8837s-.8243-1.8837-1.8416-1.8837c-1.0172 0-1.8415.84369-1.8415 1.8837zm-27.963422-3.22692h1.361262c.07463 0 .13467.06003.13467.13467v6.18165c0 .07463-.06004.13467-.13467.13467h-1.361262c-.074634 0-.134666-.06004-.134666-.13467v-6.18165c0-.07464.060032-.13467.134666-.13467zm35.319722 3.22691c0 1.04001.8242 1.88371 1.8415 1.88371s1.8415-.8437 1.8415-1.88371-.8242-1.8837-1.8415-1.8837-1.8415.84369-1.8415 1.8837z"/></g></svg>