<svg fill="none" height="10" viewBox="0 0 46 10" width="46" xmlns="http://www.w3.org/2000/svg"><g clip-rule="evenodd" fill="#bfbfc0" fill-rule="evenodd"><path d="m18.1914 9.90932v-9.590935c0-.028317.0235-.051295.0526-.051295h2.0558c.0291 0 .0527.022978.0527.051295v9.590935c0 .02822-.0236.0512-.0527.0512h-2.0558c-.0291 0-.0526-.02298-.0526-.0512z"/><path d="m7.27407.26709h-2.53006-.02641-2.10842-.02631-2.5301526c-.0291015 0-.0527174.022978-.0527174.051204v1.846516c0 .02832.0236159.05121.0527174.05121h2.5037526c.01459 0 .0264.01149.0264.02569v7.66761c0 .02831.02362.0512.05263.0512h2.05579c.0291 0 .05272-.02289.05272-.0512v-7.66761c0-.0142.0118-.02569.02631-.02569h2.50375c.0291 0 .05271-.02289.05271-.05121v-1.846516c0-.028226-.02361-.051204-.05271-.051204z"/><path d="m33.3662 7.98599v-7.667605c0-.028317-.0236-.051295-.0526-.051295h-2.0031c-.0291 0-.0527.022978-.0527.051295v7.693205.41027c0 .84985.7079 1.53866 1.5813 1.53866h.5271 4.1115c.0291 0 .0526-.02298.0526-.0512v-1.84643c0-.02832-.0235-.0513-.0526-.0513h-4.0852c-.0145 0-.0263-.01149-.0263-.0256z"/><path d="m40.9551 7.98599v-1.89356c0-.01411.0118-.0256.0264-.0256h3.7135c.0291 0 .0526-.02298.0526-.0513v-1.84633c0-.02841-.0235-.0513-.0526-.0513h-3.7135c-.0146 0-.0264-.01149-.0264-.02569v-1.8505c0-.0142.0118-.02569.0264-.02569h4.0567c.0291 0 .0527-.02298.0527-.0513v-1.846335c0-.028317-.0236-.051295-.0527-.051295h-4.0831-2.0557c-.0291 0-.0527.022978-.0527.051295v1.897635 1.90188 1.94893 1.94476.41027c0 .84985.7079 1.53866 1.5813 1.53866h.5271 4.2168c.0292 0 .0527-.02298.0527-.0512v-1.84643c0-.02832-.0235-.0513-.0527-.0513h-4.1904c-.0146 0-.0264-.01149-.0264-.0256z"/><path d="m13.5467 3.6848c0 .52408-.4365.94883-.9751.94883h-1.3493c-.0146 0-.0264-.01149-.0264-.02561v-2.36682c0-.01412.0118-.02561.0264-.02561h1.3493c.5386 0 .9751.42475.9751.94883zm2.8806 6.2018-1.9268-3.81957c-.0055-.01094-.0022-.02406.0079-.03139.6974-.50472 1.1495-1.31242 1.1495-2.22316v-.77604c0-1.52964-1.2744-2.769594-2.8464-2.769594h-1.6151-2.05579c-.0291 0-.05272.022979-.05272.051205v6.264019 3.32715c0 .02822.02362.0512.05272.0512h2.00309c.0291 0 .0527-.02298.0527-.0512v-3.30137c0-.01429.0118-.02578.0263-.02578h1.2239c.021 0 .04.01221.0484.03094l1.4716 3.30109c.0126.02814.041.04632.0726.04632h2.3408c.039 0 .0644-.0398.0473-.07382z"/><path d="m27.2031 3.86564c0 .52399-.4366.94882-.9751.94882h-1.3495c-.0145 0-.0263-.01149-.0263-.02569v-2.54836c0-.01412.0118-.02561.0263-.02561h1.3495c.5385 0 .9751.42475.9751.94882zm-.736-3.598794h-1.6145-2.0557c-.0291 0-.0528.022978-.0528.051204v6.44522 3.1458c0 .02823.0237.05121.0528.05121h2.0029c.0291 0 .0528-.02298.0528-.05121v-3.1202c0-.01411.0118-.0256.0263-.0256h1.5882c1.5719 0 2.8464-1.24003 2.8464-2.76955v-.95732c0-1.52962-1.2745-2.769554-2.8464-2.769554z"/></g></svg>