<svg width="20" height="20" viewBox="0 0 100 100" fill="none" xmlns="http://www.w3.org/2000/svg">
<g clip-path="url(#clip0_5283_69968)">
<path d="M36.7457 71.1903L39.2752 66.2987L39.9108 66.3247L39.9977 65.0042L40.2856 60.6328C40.2856 60.6328 39.1908 59.6845 38.0792 57.2264C36.9675 54.767 35.839 50.7965 35.839 50.7965C35.839 50.7965 30.0667 49.2775 31.2977 43.7348C31.3431 43.5298 32.0111 42.6698 32.8659 42.1756H32.7012C32.7012 42.1756 30.6556 36.066 30.8177 31.4027C30.9799 26.7382 33.2499 23.1568 33.2499 23.1568C30.6517 21.9167 31.478 20.9918 31.478 20.9918C31.478 20.9918 33.3913 20.8219 35.0477 19.7011C37.585 17.985 40.7734 15.3868 44.6583 14.078C47.7546 13.0364 51.4969 12.8146 54.2157 14.5138C54.8669 14.9198 56.1498 15.9666 57.2861 16.3052C59.0243 16.8241 60.8118 16.6632 62.5759 17.6633C64.7577 18.9021 66.0354 21.5418 67.2807 23.4201C67.9694 24.4578 69.0175 24.6653 69.334 25.6875C69.5714 26.4515 67.8981 27.0404 67.8981 27.0404C67.8981 27.0404 68.8398 30.378 68.5583 34.1125C68.2782 37.847 66.7735 41.9784 66.7735 41.9784L66.1353 41.9823C66.1807 42.0005 66.2248 42.0199 66.2689 42.042C67.819 42.7904 68.4987 44.4054 68.4922 44.9658C68.4364 49.76 64.0611 50.8483 64.0611 50.8483C64.0611 50.8483 63.2361 53.8928 62.0596 56.3068C60.8831 58.7221 59.3538 60.5082 59.3538 60.5082L59.752 67.1289L60.3591 67.1535L62.8483 71.6404C62.8483 71.6404 67.3455 73.7418 73.3941 75.742C78.4297 77.4062 84.5808 78.9291 88.5721 81.8165C95.7103 73.1723 100 62.0869 100 50C100 22.3862 77.6138 0 50 0C22.3862 0 0 22.3862 0 50C0 62.0389 4.25595 73.0841 11.3436 81.7141C16.9304 78.2105 24.3735 75.9949 29.8812 74.1556C33.2213 73.0413 36.7457 71.1903 36.7457 71.1903Z" fill="white"/>
<path d="M37.2698 41.5491C38.4178 41.0743 39.5787 39.6098 39.5787 39.6098L41.396 38.8406C41.396 38.8406 44.9061 39.2103 48.0439 36.9533C50.8925 34.9038 50.7563 28.9563 51.6552 27.6008C51.9042 27.2246 53.3052 27.0573 53.8227 27.082C55.4169 27.1598 57.0423 27.6501 57.9165 29.1989C59.5004 32.002 60.0322 37.5175 61.7185 40.3181C62.8159 42.1419 64.737 41.4142 66.1353 41.9836L66.7735 41.9797C66.7735 41.9797 68.2782 37.8483 68.5584 34.1138C68.8399 30.3793 67.8981 27.0417 67.8981 27.0417C67.8981 27.0417 69.5715 26.4541 69.3341 25.6888C69.0176 24.6667 67.9695 24.4591 67.2807 23.4214C66.0341 21.5431 64.7577 18.9034 62.5759 17.6646C60.8118 16.6632 59.023 16.8254 57.2861 16.3065C56.1511 15.968 54.8669 14.9225 54.2158 14.5151C51.4969 12.8159 47.7547 13.0377 44.6584 14.0793C40.7734 15.3868 37.585 17.9863 35.0478 19.7025C33.3913 20.8232 31.478 20.9931 31.478 20.9931C31.478 20.9931 30.6517 21.9193 33.2499 23.1581C33.2499 23.1581 30.9786 26.7395 30.8177 31.4041C30.6556 36.0686 32.7012 42.1782 32.7012 42.1782H32.8659C33.0177 42.09 33.1747 42.0122 33.3355 41.9525C35.2073 41.2689 35.2242 42.3961 37.2711 41.5491H37.2698ZM40.2584 36.568C40.344 36.5032 42.3819 35.014 45.1915 36.2372C45.4548 36.3514 45.5754 36.6575 45.4613 36.9208C45.3471 37.1829 45.0397 37.3035 44.7777 37.1907C42.5388 36.2165 40.9459 37.3528 40.8798 37.4021C40.7864 37.4695 40.6787 37.5033 40.5723 37.5033C40.4128 37.5033 40.2558 37.4306 40.1546 37.2931C39.9847 37.0635 40.0314 36.7405 40.2597 36.5693L40.2584 36.568Z" fill="#B54D4D"/>
<path d="M50 100C65.5269 100 79.4012 92.9214 88.5721 81.8165C84.5808 78.9291 78.4297 77.4062 73.3941 75.742C67.3455 73.7431 62.8483 71.6404 62.8483 71.6404L60.359 67.1535L59.752 67.1289L59.8142 68.1705C59.8142 68.1705 58.8764 69.5429 57.2368 71.0541C55.5985 72.564 53.2584 74.2113 53.2584 74.2113L50.2464 81.9488C50.2464 81.9488 48.494 78.9343 47.5678 76.973C46.6404 75.013 46.3693 73.7586 46.3693 73.7586C46.3693 73.7586 43.8243 71.8505 42.2106 70.3912C40.5969 68.9319 39.8122 67.8138 39.8122 67.8138L39.9095 66.3247L39.2738 66.2987L36.7444 71.1903C36.7444 71.1903 33.22 73.04 29.8799 74.1556C24.3722 75.9949 16.9291 78.2117 11.3423 81.7141C20.5118 92.8786 34.4238 100 49.9987 100H50Z" fill="#F49037"/>
<path fill-rule="evenodd" clip-rule="evenodd" d="M42.9423 41.9281C43.1588 41.9281 43.361 41.9955 43.5413 42.1147L43.5403 42.1147C43.958 42.3897 44.2433 42.9435 44.2433 43.5817C44.2433 44.4936 43.6609 45.2343 42.9423 45.2343C42.2237 45.2343 41.6413 44.4936 41.6413 43.5817C41.6413 42.9499 41.9204 42.4008 42.3304 42.1227L42.334 42.1227C42.5156 41.9994 42.7231 41.9294 42.9436 41.9294L42.9423 41.9281ZM48.5473 47.1852C48.1634 45.5976 48.9104 43.2746 49.3942 42.0812L49.3956 42.0812C49.5059 41.8088 49.6032 41.5947 49.6693 41.4624C49.7978 41.2056 50.1091 41.1018 50.3659 41.2302C50.6228 41.3586 50.7265 41.6713 50.5981 41.9268C50.5761 41.9708 50.5528 42.0201 50.5282 42.0744L50.5267 42.0745C50.0883 43.024 49.2127 45.5119 49.5578 46.9427C49.6927 47.4991 50.0676 47.8182 50.4658 48.1555C50.8744 48.5018 51.3362 48.8949 51.3855 49.5383C51.4309 50.1324 51.1118 50.7887 50.3503 51.6643C50.2479 51.7823 50.1039 51.8433 49.9573 51.8433C49.8367 51.8433 49.716 51.8018 49.6174 51.7162C49.4008 51.5281 49.3775 51.1999 49.5656 50.9833C50.2401 50.2063 50.3633 49.8107 50.349 49.6161C50.3335 49.415 50.1272 49.2308 49.7926 48.9468C49.3334 48.5563 48.7613 48.0699 48.5473 47.1852ZM55.2043 43.6194C55.2043 42.879 55.5879 42.2526 56.1169 42.0423L56.1188 42.0422C56.242 41.9929 56.3717 41.967 56.5079 41.967C56.6439 41.967 56.7644 41.9916 56.8835 42.0381L56.8828 42.0381C57.4185 42.2431 57.8077 42.8735 57.8077 43.6194C57.8077 44.5326 57.2252 45.2719 56.5066 45.2719C55.788 45.2719 55.2043 44.5326 55.2043 43.6194ZM66.1367 41.9839L66.1359 41.9839C66.1811 42.002 66.225 42.0226 66.2689 42.0433L66.269 42.0433C67.8178 42.7905 68.4988 44.4054 68.4923 44.9671C68.4365 49.7614 64.0612 50.8497 64.0612 50.8497C64.0612 50.8497 63.2375 53.8941 62.0597 56.3081L62.061 56.3068C60.8845 58.7221 59.3552 60.5083 59.3552 60.5083L59.7534 67.1287H59.7534L59.8157 68.1703C59.8157 68.1703 58.8765 69.544 57.2382 71.0539C55.5999 72.5638 53.2599 74.2112 53.2599 74.2112L50.2479 81.9487C50.2479 81.9487 48.4954 78.9328 47.5693 76.9728C46.6431 75.0128 46.3707 73.7585 46.3707 73.7585C46.3707 73.7585 43.8257 71.8504 42.212 70.3911C40.5984 68.9318 39.8136 67.8136 39.8136 67.8136L39.9109 66.3245L39.9109 66.3245L39.9978 65.004C39.9978 65.004 40.6879 65.6474 41.7696 66.3997L41.7697 66.3997C43.5053 67.6061 46.2449 69.0939 48.7601 68.6607H48.7614C50.1078 68.4285 51.4944 67.728 52.7903 66.846L52.7906 66.846C56.019 64.6486 58.6729 61.3242 58.6729 61.3242C58.6729 61.3242 53.6049 65.7008 50.0157 65.6113C45.2811 65.4932 40.2844 60.6328 40.2844 60.6328C40.2844 60.6328 39.1896 59.6859 38.078 57.2265C36.9663 54.7671 35.8378 50.7965 35.8378 50.7965C35.8378 50.7965 30.0655 49.2775 31.2965 43.7348C31.3419 43.5299 32.0099 42.6699 32.8647 42.1756L32.8687 42.1756C33.0196 42.088 33.1757 42.0108 33.3356 41.9527C34.2303 41.6266 34.7015 41.7139 35.173 41.8013C35.688 41.8967 36.2033 41.9922 37.2712 41.5493C38.4179 41.0746 39.5801 39.6101 39.5801 39.6101L41.3974 38.8409C41.3974 38.8409 44.9075 39.2106 48.0453 36.9535C49.9304 35.5972 50.5083 32.534 50.9441 30.2241C51.1669 29.0434 51.3525 28.0596 51.6566 27.6011C51.9069 27.2236 53.3079 27.0563 53.8241 27.0822C55.4183 27.1613 57.0437 27.6503 57.9179 29.1991C58.6885 30.5618 59.2101 32.5653 59.7363 34.5864L59.7363 34.5864C60.2926 36.723 60.854 38.8792 61.7199 40.3183C62.4458 41.5248 63.5322 41.6147 64.5893 41.7022C65.1302 41.747 65.6634 41.7911 66.1367 41.9839ZM53.8176 36.2336C56.5987 34.9403 58.6716 36.3815 58.7585 36.4424C58.992 36.6085 59.0465 36.9328 58.8804 37.1675C58.7792 37.3102 58.6184 37.3855 58.4562 37.3855C58.3525 37.3855 58.2487 37.3543 58.1579 37.2908C58.0853 37.2402 56.4677 36.148 54.2561 37.1753C53.994 37.2973 53.6866 37.1831 53.566 36.9237C53.4454 36.663 53.5582 36.3542 53.8176 36.2336ZM66.4011 45.7772C66.383 45.8102 66.361 45.8417 66.3351 45.8711C66.3058 45.9044 66.2725 45.9449 66.2366 45.9906C66.2725 45.945 66.3057 45.9045 66.3351 45.8712C66.361 45.8418 66.383 45.8102 66.4011 45.7772ZM65.7356 46.6916C65.6589 46.8048 65.5936 46.9031 65.5516 46.9672C65.4517 47.1203 65.2857 47.2033 65.1158 47.2033C65.0185 47.2033 64.9199 47.1761 64.833 47.119C64.8264 47.1147 64.82 47.1103 64.8137 47.1058C64.82 47.1103 64.8264 47.1148 64.833 47.1191C64.9199 47.1762 65.0185 47.2034 65.1158 47.2034C65.2857 47.2034 65.4518 47.1204 65.5516 46.9673C65.5937 46.9032 65.6589 46.8048 65.7356 46.6916ZM34.0581 45.1474L34.0581 45.1476C33.8688 44.9323 33.5393 44.9115 33.3253 45.1022C33.279 45.1429 33.2417 45.19 33.2136 45.241C33.2417 45.1899 33.2789 45.1427 33.3252 45.102C33.5392 44.9113 33.8687 44.9321 34.0581 45.1474ZM49.9755 57.2823C51.7759 57.2823 53.614 56.7932 54.9033 55.6907L54.9046 55.6894C55.1225 55.5039 55.1485 55.1757 54.9617 54.9578C54.7762 54.7398 54.448 54.7139 54.2301 54.9007C52.0055 56.8036 47.4564 56.526 45.6832 54.9305C45.4691 54.7385 45.1397 54.7541 44.949 54.9681C44.757 55.1822 44.7739 55.5104 44.9866 55.7023C46.0957 56.7011 48.0129 57.2823 49.9755 57.2823Z" fill="#FFB69F"/>
<path d="M53.248 74.1971L60.3824 67.1925L68.8139 74.1193L62.1335 83.2772L53.248 74.1971Z" fill="#FFA242"/>
<path d="M46.438 73.8079L39.2388 66.2844L30.8722 73.8079L37.5525 82.888L46.438 73.8079Z" fill="#FFA242"/>
<path fill-rule="evenodd" clip-rule="evenodd" d="M49.6679 41.4622C49.7963 41.2054 50.1076 41.1016 50.3645 41.23C50.6213 41.3584 50.7251 41.6697 50.5967 41.9266C50.5892 41.9423 50.5813 41.9588 50.5731 41.9759C50.5583 42.0066 50.5425 42.0394 50.5267 42.0743L50.5279 42.0743C50.0895 43.0251 49.2139 45.5131 49.5589 46.9425C49.6938 47.4977 50.0687 47.8181 50.4669 48.1554C50.8755 48.5017 51.3373 48.8947 51.3866 49.5381C51.432 50.1322 51.1129 50.7873 50.3515 51.6642C50.249 51.7822 50.1037 51.8432 49.9585 51.8432C49.8378 51.8432 49.7172 51.8017 49.6186 51.7161C49.402 51.528 49.3786 51.1998 49.5667 50.9832C50.2412 50.2062 50.3645 49.8105 50.3502 49.616C50.3346 49.4162 50.1284 49.2307 49.7937 48.9466C49.3345 48.5562 48.7625 48.0698 48.5484 47.1851C48.1658 45.5974 48.9129 43.2743 49.3954 42.0809L49.3942 42.0809C49.5058 41.8085 49.6017 41.5945 49.6679 41.4622Z" fill="#FF9988"/>
<path d="M54.2275 54.902C52.0029 56.8049 47.4538 56.5273 45.6806 54.9318C45.4665 54.7398 45.1384 54.7567 44.9464 54.9694C44.7544 55.1834 44.7713 55.5116 44.984 55.7036C46.0931 56.7024 48.0103 57.2835 49.9729 57.2835C51.7733 57.2835 53.6127 56.7945 54.9007 55.6919C55.1186 55.5064 55.1446 55.1783 54.9578 54.9603C54.7723 54.7424 54.4441 54.7165 54.2262 54.9033L54.2275 54.902Z" fill="#FF7E68"/>
<path d="M40.5722 37.5007C40.6786 37.5007 40.7875 37.4683 40.8796 37.3995C40.9458 37.3502 42.5387 36.2139 44.7776 37.1881C45.0396 37.3009 45.347 37.1816 45.4612 36.9183C45.5753 36.6549 45.4547 36.3488 45.1914 36.2347C42.3817 35.0115 40.3426 36.5006 40.2583 36.5654C40.03 36.7367 39.9833 37.0597 40.1532 37.2893C40.2544 37.4268 40.4114 37.4994 40.5709 37.4994L40.5722 37.5007Z" fill="#813434"/>
<path d="M54.2546 37.1764C56.4663 36.149 58.0838 37.2412 58.1565 37.2918C58.2473 37.3554 58.3523 37.3865 58.4548 37.3865C58.617 37.3865 58.7765 37.3113 58.879 37.1686C59.045 36.9351 58.9905 36.6108 58.757 36.4435C58.6701 36.3812 56.5973 34.9414 53.8162 36.2346C53.5568 36.3553 53.4426 36.664 53.5646 36.9247C53.6852 37.1842 53.9926 37.2983 54.2546 37.1764Z" fill="#B54D4D"/>
<path d="M39.9976 65.0042L40.2842 60.6328L39.9976 65.0042Z" fill="black"/>
<path fill-rule="evenodd" clip-rule="evenodd" d="M58.6715 61.3257C58.6715 61.3257 56.0188 64.649 52.7889 66.8476H52.7868C51.4928 67.729 50.1057 68.4289 48.7599 68.6609C46.2459 69.094 43.5063 67.6077 41.7719 66.4016L41.767 66.4014C40.6865 65.6491 39.9951 65.0057 39.9951 65.0057L40.2831 60.6343C40.2831 60.6343 45.2797 65.4947 50.0143 65.6127C53.6035 65.7022 58.6715 61.3257 58.6715 61.3257Z" fill="#FF9988"/>
<path fill-rule="evenodd" clip-rule="evenodd" d="M43.5415 42.1146L42.3326 42.1211C42.5142 41.9979 42.7256 41.9279 42.9422 41.9279C43.1589 41.9279 43.3625 41.9966 43.5415 42.1146ZM42.9422 45.2345C42.2236 45.2345 41.6412 44.4938 41.6412 43.5819H41.6399C41.6399 42.9489 41.9201 42.3989 42.3313 42.1213L43.5402 42.1148C43.9579 42.3898 44.2433 42.9437 44.2433 43.5819C44.2433 44.4938 43.6609 45.2345 42.9422 45.2345Z" fill="#340C0C"/>
<path d="M55.2056 43.618C55.2056 44.5312 55.788 45.2705 56.5079 45.2705C57.2278 45.2705 57.809 44.5312 57.809 43.618C57.809 42.8721 57.4185 42.2417 56.8841 42.0367L56.1188 42.0406C55.5895 42.2508 55.2056 42.8773 55.2056 43.618Z" fill="#340C0C"/>
<path d="M56.1174 42.042L56.8828 42.0381C56.7634 41.9927 56.6376 41.9668 56.5066 41.9668C56.3756 41.9668 56.2407 41.9927 56.1174 42.042Z" fill="#340C0C"/>
</g>
<defs>
<clipPath id="clip0_5283_69968">
<rect width="100" height="100" fill="white"/>
</clipPath>
</defs>
</svg>
