<svg width="20" height="20" viewBox="0 0 100 100" fill="none" xmlns="http://www.w3.org/2000/svg">
<g clip-path="url(#clip0_5283_69973)">
<path d="M83.7 13.0636C74.8119 4.94993 62.9845 0 50 0C37.0155 0 25.1881 4.94993 16.3 13.0636C6.2834 22.2072 0 35.3694 0 50C0 55.5038 0.889846 60.7988 2.53204 65.7513C4.78 72.5276 8.43797 78.6619 13.1583 83.8038C19.7491 79.5569 29.5063 77.3245 29.5063 77.3245L29.7554 77.3154C29.937 76.9302 30.1134 76.5293 30.2807 76.1091C31.5143 73.0257 32.2355 69.098 32.9658 65.7526C33.2317 64.5346 33.4989 63.3931 33.7908 62.3982C35.1593 57.7505 36.9066 55.5285 36.9066 55.5285C36.1386 53.706 35.6535 51.8017 35.5692 51.4567L35.5484 51.3996C35.3357 51.3711 29.5738 50.537 30.8411 44.1044C31.0331 43.129 31.5701 42.6893 32.4002 42.5297L32.3445 42.3715C32.3445 42.3715 31.2445 38.7278 30.9721 34.7831C30.7036 30.8592 31.2588 26.6409 32.3445 24.4513C35.5394 18.0109 44.4261 12.9391 52.5735 13.7524C57.1317 14.2077 60.743 16.7099 63.8276 19.8503C65.3699 21.4212 67.3001 23.2579 68.1134 24.8664C68.8554 26.3361 69.7491 30.3806 69.609 34.1994C69.4547 38.4554 68.2159 42.4389 68.2159 42.4389L68.1679 42.5193C69.382 42.8786 70.5547 44.0318 70.6143 45.1668C70.9062 50.6875 65.597 51.6435 65.597 51.6435C65.597 51.6435 65.0625 54.5945 63.7991 57.1162C62.5357 59.6378 60.5432 61.7327 60.5432 61.7327C60.5432 61.7327 60.2903 63.5267 60.2877 65.7513C60.2864 67.4778 60.4356 69.4625 60.9726 71.0722C61.7963 73.542 67.1341 75.7978 67.1341 75.7978C67.1341 75.7978 67.1276 75.8457 67.1146 75.9327L67.5362 75.9171C67.5362 75.9171 71.5898 77.4283 76.2141 79.112C79.6996 80.3819 83.5456 81.8126 86.8326 83.8115C91.5568 78.6683 95.2174 72.5315 97.4654 65.7526C99.1076 60.8001 99.9974 55.5051 99.9974 50.0013C99.9974 35.3707 93.7127 22.2085 83.6974 13.0649L83.7 13.0636Z" fill="white"/>
<path d="M23.2734 92.2638C23.2345 92.0627 23.2111 91.8811 23.2098 91.7293C23.1956 90.2687 23.9933 87.201 25.3372 84.6832C26.611 82.2977 28.3543 80.2885 29.7553 77.3141L29.5062 77.3232C29.5062 77.3232 19.749 79.5556 13.1582 83.8024C16.1365 87.0466 19.5363 89.8952 23.2734 92.2625V92.2638Z" fill="#FF7C59"/>
<path d="M67.5375 75.9158L67.116 75.9313C67.0265 76.5267 66.6334 78.9732 65.981 80.7516C65.3492 82.4755 64.7318 83.281 61.284 84.1708C57.185 85.2293 50.0351 85.529 44.6649 85.0594C40.7008 84.7118 37.7861 83.8076 37.1608 83.6027L36.9611 83.8063C36.9611 83.8063 33.6235 90.8395 32.3977 96.8142C37.873 98.8741 43.8036 100.001 49.9988 100.001C64.5748 100.001 77.6942 93.7633 86.8327 83.8115C83.5457 81.8126 79.7009 80.3832 76.2142 79.112C71.5898 77.4283 67.5362 75.9171 67.5362 75.9171L67.5375 75.9158Z" fill="#FF7C59"/>
<path d="M33.7181 42.461C35.0892 42.5181 36.5264 43.1212 38.476 41.6555C39.279 41.0523 40.855 39.7253 40.855 39.7253C40.855 39.7253 47.7585 36.4954 50.5473 34.346C54.0457 31.6505 57.5091 27.8291 57.5091 27.8291C57.5091 27.8291 60.036 28.0068 61.7067 30.3482C63.3775 32.6895 63.1271 31.7387 64.1934 37.192C64.3438 37.9625 64.6175 40.5555 64.9042 41.9382C65.0573 42.6841 66.5775 42.1121 68.0524 42.483C68.0926 42.4934 68.1315 42.5064 68.1717 42.5181L68.2197 42.4376C68.2197 42.4376 69.4572 38.4541 69.6129 34.1981C69.7517 30.3793 68.8592 26.3348 68.1173 24.8651C67.3039 23.2554 65.3738 21.4199 63.8315 19.849C60.7455 16.7086 57.1356 14.2064 52.5774 13.7511C44.4313 12.9378 35.5432 18.0097 32.3483 24.45C31.2626 26.6396 30.7074 30.858 30.9759 34.7819C31.2483 38.7265 32.3483 42.3702 32.3483 42.3702L32.4041 42.5284C32.7828 42.4558 33.2239 42.4415 33.7207 42.4623L33.7181 42.461ZM40.4762 36.2619C40.5683 36.1944 42.7463 34.6002 45.7531 35.9091C46.0345 36.031 46.1643 36.3579 46.041 36.6394C45.9191 36.9221 45.5896 37.0506 45.3107 36.9273C42.9123 35.8883 41.213 37.1012 41.1404 37.153C41.0405 37.2257 40.9264 37.2607 40.8109 37.2607C40.641 37.2607 40.4724 37.1829 40.3647 37.0363C40.1831 36.7911 40.2324 36.4448 40.4762 36.2619Z" fill="#B54D4D"/>
<path d="M35.5483 51.397L35.5691 51.454C35.56 51.4177 35.5548 51.397 35.5548 51.397C35.5548 51.397 35.5522 51.397 35.5483 51.397Z" fill="#AD775E"/>
<path d="M40.0534 65.7513L39.8199 60.7716C39.8199 60.7716 38.1635 58.2603 37.1608 56.1005C37.0726 55.9111 36.9882 55.7192 36.9065 55.5259C36.9065 55.5259 35.1593 57.7492 33.7908 62.3969C33.4976 63.3918 33.2317 64.5333 32.9658 65.7513C32.2355 69.0967 31.5143 73.0257 30.2807 76.1078C30.112 76.5281 29.9369 76.9289 29.7553 77.3141C28.3544 80.2872 26.6123 82.2978 25.3372 84.6833C23.9934 87.201 23.1956 90.2688 23.2099 91.7294C23.2112 91.8824 23.2333 92.0627 23.2735 92.2638C26.1324 94.0746 29.1872 95.6053 32.3989 96.8129C33.6247 90.8382 36.9623 83.8051 36.9623 83.8051L37.1621 83.6014C37.0803 83.5742 37.0362 83.5586 37.0362 83.5586C37.0362 83.5586 37.9819 80.6517 38.7965 76.9782C39.1636 75.3256 39.5034 73.5174 39.72 71.7494C39.9782 69.635 40.0599 67.5777 40.0586 65.8266L40.0547 65.75L40.0534 65.7513Z" fill="#B54D4D"/>
<path d="M35.5691 51.4554C35.6547 51.8018 36.1385 53.706 36.9065 55.5259L35.6301 51.628L35.5691 51.4554Z" fill="#FFDDC0"/>
<path d="M53.9018 65.7513H47.8635C48.8818 66.1068 49.9156 66.3377 50.9131 66.361C51.8497 66.3831 52.8796 66.1366 53.9031 65.7513H53.9018Z" fill="#FFC7A4"/>
<path d="M63.8005 57.1162C65.0639 54.5946 65.5983 51.6436 65.5983 51.6436C65.5983 51.6436 70.9076 50.6876 70.6157 45.1669C70.5574 44.0306 69.3834 42.8787 68.1693 42.5194C68.1291 42.5077 68.0902 42.4947 68.05 42.4844C66.5751 42.1134 65.0548 42.6854 64.9018 41.9396C64.6151 40.5568 64.3414 37.9638 64.1909 37.1933C63.1247 31.7388 63.375 32.6896 61.7043 30.3495C60.0336 28.0082 57.5067 27.8304 57.5067 27.8304C57.5067 27.8304 54.0433 31.6519 50.5449 34.3473C47.756 36.4967 40.8526 39.7266 40.8526 39.7266C40.8526 39.7266 39.2778 41.0536 38.4736 41.6568C36.524 43.1226 35.0868 42.5194 33.7157 42.4623C33.2189 42.4416 32.7778 42.4558 32.3991 42.5285C31.5689 42.688 31.0319 43.1278 30.8399 44.1032C29.5726 50.5358 35.3345 51.3711 35.5472 51.3984C35.5511 51.3984 35.5537 51.3984 35.5537 51.3984C35.5537 51.3984 35.5589 51.4191 35.568 51.4555L35.629 51.628L36.9054 55.5259C36.9871 55.7192 37.0714 55.9112 37.1596 56.1006C38.1623 58.2603 39.8188 60.7716 39.8188 60.7716C39.8188 60.7716 43.7076 64.3012 47.8624 65.7514H53.9006C54.0835 65.6826 54.2677 65.6087 54.4493 65.5309C57.4211 64.2713 60.1724 62.0234 60.1724 62.0234C60.1724 62.0234 58.6028 63.8822 56.3782 65.7501C55.0084 66.8994 53.3909 68.0512 51.7383 68.7763C51.0158 69.0928 50.2855 69.3289 49.5669 69.4457C45.2006 70.1565 40.0561 65.8305 40.0561 65.8305V65.8279C40.0561 67.5791 39.977 69.6363 39.7176 71.7507C39.501 73.5187 39.1611 75.3269 38.794 76.9795C37.9794 80.653 37.0338 83.56 37.0338 83.56C37.0338 83.56 37.0779 83.5755 37.1596 83.6028C37.7835 83.8077 40.6982 84.7118 44.6636 85.0595C50.0325 85.529 57.1837 85.2294 61.2827 84.1709C64.7306 83.2824 65.348 82.4768 65.9797 80.7516C66.6322 78.9719 67.0252 76.5255 67.1147 75.9314C67.1277 75.8445 67.1342 75.7965 67.1342 75.7965C67.1342 75.7965 61.7964 73.5408 60.9727 71.071C60.4357 69.4625 60.2865 67.4766 60.2878 65.7501C60.2904 63.5255 60.5433 61.7315 60.5433 61.7315C60.5433 61.7315 62.5358 59.6379 63.7992 57.1149L63.8005 57.1162ZM50.6331 41.2209C50.7693 40.9472 51.1014 40.8357 51.379 40.9732C51.654 41.1107 51.7642 41.444 51.6267 41.719C51.1935 42.5842 50.1246 45.4652 50.5151 47.0841C50.6591 47.6782 51.0599 48.0206 51.4853 48.3825C51.9225 48.7535 52.4167 49.1738 52.4686 49.8613C52.5166 50.4969 52.1741 51.1986 51.3621 52.1365C51.2519 52.2636 51.0975 52.3284 50.9418 52.3284C50.8121 52.3284 50.6837 52.283 50.5773 52.1922C50.3451 51.9912 50.3205 51.6397 50.5216 51.4088C51.2428 50.5773 51.3751 50.1544 51.3595 49.9456C51.3439 49.7316 51.1234 49.5344 50.7654 49.2295C50.2738 48.8119 49.6628 48.2917 49.4332 47.3448C48.9287 45.2551 50.2492 41.9837 50.6318 41.2222L50.6331 41.2209ZM43.1719 45.5327C42.4027 45.5327 41.7788 44.7414 41.7788 43.7647C41.7788 42.7879 42.4014 41.9966 43.1719 41.9966C43.9424 41.9966 44.565 42.7879 44.565 43.7647C44.565 44.7414 43.9424 45.5327 43.1719 45.5327ZM56.1875 56.2575C54.8086 57.4379 52.8409 57.9607 50.9146 57.9607C48.8158 57.9607 46.765 57.3393 45.5794 56.2718C45.3511 56.0668 45.3317 55.7153 45.5379 55.487C45.7441 55.2587 46.0944 55.2406 46.3227 55.4455C48.2204 57.1526 53.0873 57.4496 55.465 55.4131C55.6985 55.2146 56.0487 55.2406 56.2485 55.474C56.4482 55.7075 56.421 56.0591 56.1875 56.2575ZM57.3316 45.5314C56.5637 45.5314 55.9385 44.7401 55.9385 43.7634C55.9385 42.7866 56.5637 41.9953 57.3316 41.9953C58.0995 41.9953 58.7247 42.7866 58.7247 43.7634C58.7247 44.7401 58.1008 45.5314 57.3316 45.5314ZM60.3955 36.9053C60.2865 37.0571 60.1166 37.1388 59.9415 37.1388C59.8312 37.1388 59.7197 37.1051 59.6224 37.0363C59.551 36.9857 57.8154 35.8144 55.4468 36.9131C55.1718 37.0402 54.8372 36.9209 54.7088 36.642C54.579 36.3644 54.701 36.0336 54.9799 35.9039C57.9529 34.5212 60.1711 36.0622 60.2645 36.1283C60.5135 36.306 60.5719 36.6524 60.3942 36.9027L60.3955 36.9053Z" fill="#FFC7A4"/>
<path d="M50.7665 49.2282C51.1245 49.5331 51.345 49.7302 51.3606 49.9443C51.3762 50.1531 51.2439 50.576 50.5226 51.4075C50.3216 51.6383 50.3462 51.9899 50.5784 52.1909C50.6835 52.2817 50.8132 52.3271 50.9429 52.3271C51.0986 52.3271 51.2529 52.2623 51.3632 52.1352C52.1765 51.1973 52.5177 50.4969 52.4697 49.86C52.4165 49.1725 51.9236 48.7522 51.4864 48.3812C51.061 48.0193 50.6589 47.6781 50.5162 47.0828C50.1257 45.4639 51.1946 42.5842 51.6278 41.7177C51.7653 41.4427 51.6551 41.1094 51.3801 40.9719C51.1025 40.8344 50.7717 40.9459 50.6342 41.2196C50.2528 41.9824 48.9323 45.2525 49.4356 47.3422C49.6639 48.2891 50.2749 48.8093 50.7678 49.2269L50.7665 49.2282Z" fill="#EDA07E"/>
<path d="M50.9144 57.9606C52.8407 57.9606 54.8085 57.4379 56.1874 56.2575C56.4208 56.0577 56.4481 55.7075 56.2483 55.474C56.0486 55.2405 55.6983 55.2146 55.4648 55.413C53.0872 57.4496 48.2203 57.1525 46.3225 55.4455C46.0942 55.2405 45.744 55.2587 45.5377 55.487C45.3328 55.7153 45.351 56.0668 45.5793 56.2718C46.7662 57.3393 48.8157 57.9606 50.9144 57.9606Z" fill="#EDA07E"/>
<path d="M40.811 37.2619C40.9251 37.2619 41.0406 37.2269 41.1405 37.1542C41.2118 37.1024 42.9124 35.8882 45.3108 36.9285C45.5897 37.0518 45.9192 36.9234 46.0411 36.6406C46.163 36.3591 46.0346 36.0322 45.7531 35.9103C42.7463 34.6015 40.5684 36.1957 40.4763 36.2631C40.2312 36.4473 40.1819 36.7923 40.3648 37.0375C40.4737 37.1841 40.6411 37.2619 40.811 37.2619Z" fill="#851A1A"/>
<path d="M55.448 36.9143C57.8166 35.8156 59.5509 36.987 59.6236 37.0375C59.7208 37.1063 59.8324 37.14 59.9427 37.14C60.1178 37.14 60.2877 37.0583 60.3967 36.9065C60.5744 36.6562 60.516 36.3098 60.2669 36.1321C60.1736 36.066 57.9554 34.525 54.9824 35.9077C54.7035 36.0374 54.5828 36.3682 54.7113 36.6458C54.8397 36.9247 55.1743 37.0427 55.4493 36.9169L55.448 36.9143Z" fill="#B54D4D"/>
<path d="M40.0574 65.7513H40.0535L40.0574 65.8279V65.7513Z" fill="black"/>
<path d="M54.4505 65.5307C54.2676 65.6086 54.0847 65.6812 53.9018 65.7513C52.8783 66.1365 51.8484 66.3843 50.9118 66.3609C49.9156 66.3376 48.8805 66.1067 47.8622 65.7513C43.7075 64.2997 39.8186 60.7715 39.8186 60.7715L40.0521 65.7513H40.056V65.8304C40.056 65.8304 45.2005 70.1577 49.568 69.4455C50.2866 69.3288 51.0156 69.0927 51.7394 68.7762C53.3933 68.0511 55.0108 66.8992 56.3793 65.75C58.604 63.8821 60.1735 62.0232 60.1735 62.0232C60.1735 62.0232 57.4209 64.2699 54.4505 65.5307Z" fill="#F2B594"/>
<path d="M43.1732 45.5326C43.9424 45.5326 44.5663 44.7414 44.5663 43.7646C44.5663 42.7878 43.9437 41.9966 43.1732 41.9966C42.4027 41.9966 41.78 42.7878 41.78 43.7646C41.78 44.7414 42.4027 45.5326 43.1732 45.5326Z" fill="#5A1818"/>
<path d="M57.3316 41.9966C56.5637 41.9966 55.9385 42.7878 55.9385 43.7646C55.9385 44.7414 56.5637 45.5326 57.3316 45.5326C58.0995 45.5326 58.7248 44.7414 58.7248 43.7646C58.7248 42.7878 58.1008 41.9966 57.3316 41.9966Z" fill="#5A1818"/>
</g>
<defs>
<clipPath id="clip0_5283_69973">
<rect width="100" height="100" fill="white"/>
</clipPath>
</defs>
</svg>
