<svg width="40" height="40" viewBox="0 0 40 40" fill="none" xmlns="http://www.w3.org/2000/svg">
<path fill-rule="evenodd" clip-rule="evenodd" d="M18.0908 25.4828C18.505 25.4828 18.8408 25.8186 18.8408 26.2328V31.0056C18.8408 31.4198 18.505 31.7556 18.0908 31.7556C17.6766 31.7556 17.3408 31.4198 17.3408 31.0056V26.2328C17.3408 25.8186 17.6766 25.4828 18.0908 25.4828Z" fill="#333333"/>
<path fill-rule="evenodd" clip-rule="evenodd" d="M21.9089 25.4828C22.3231 25.4828 22.6589 25.8186 22.6589 26.2328V31.0056C22.6589 31.4198 22.3231 31.7556 21.9089 31.7556C21.4947 31.7556 21.1589 31.4198 21.1589 31.0056V26.2328C21.1589 25.8186 21.4947 25.4828 21.9089 25.4828Z" fill="#333333"/>
<path d="M14.8578 32.5395C14.7992 31.4466 15.6696 30.5283 16.7641 30.5283H23.2359C24.3304 30.5283 25.2008 31.4466 25.1423 32.5395L25.0949 33.4241C24.9812 35.547 23.2266 37.2101 21.1006 37.2101H18.8994C16.7734 37.2101 15.0189 35.547 14.9052 33.4241L14.8578 32.5395Z" fill="white"/>
<path fill-rule="evenodd" clip-rule="evenodd" d="M23.2359 32.0283H16.7641C16.5296 32.0283 16.3431 32.2251 16.3556 32.4593L16.403 33.3438C16.4741 34.6707 17.5707 35.7101 18.8994 35.7101H21.1006C22.4294 35.7101 23.526 34.6707 23.597 33.3438L23.6444 32.4593C23.657 32.2251 23.4705 32.0283 23.2359 32.0283ZM16.7641 30.5283C15.6696 30.5283 14.7992 31.4466 14.8578 32.5395L14.9052 33.4241C15.0189 35.547 16.7734 37.2101 18.8994 37.2101H21.1006C23.2266 37.2101 24.9812 35.547 25.0949 33.4241L25.1423 32.5395C25.2008 31.4466 24.3304 30.5283 23.2359 30.5283H16.7641Z" fill="#333333"/>
<path fill-rule="evenodd" clip-rule="evenodd" d="M19.9868 4.76324C16.4847 4.76849 9.50665 6.8724 9.50665 15.2566C9.35228 17.7266 10.487 23.764 16.1416 28.6533C16.4731 28.9399 16.9004 29.0888 17.3386 29.0888H19.9868H20H22.6483C23.0864 29.0888 23.5137 28.9399 23.8452 28.6533C29.4999 23.764 30.6345 17.7266 30.4802 15.2566C30.4802 6.87241 23.5021 4.76849 20 4.76324C20 4.76324 20 4.76324 20 4.76323V4.76323C20 4.76323 20 4.76323 20 4.76323C19.9956 4.76323 19.9912 4.76323 19.9868 4.76324Z" fill="white"/>
<path fill-rule="evenodd" clip-rule="evenodd" d="M20.0077 4.00557C22.1389 4.00874 25.4887 4.7212 27.9889 7.00983C28.2944 7.28951 28.3154 7.76392 28.0357 8.06946C27.756 8.37499 27.2816 8.39596 26.9761 8.11628C24.8319 6.15359 21.8878 5.50853 20.0062 5.50557L19.9944 5.50558C18.3601 5.508 15.9013 5.9968 13.8732 7.43239C11.884 8.84054 10.2632 11.1874 10.2632 15.0497C10.2632 15.0656 10.2626 15.0815 10.2616 15.0974C10.1213 17.3007 11.1719 22.9875 16.6333 27.62C16.8193 27.7778 17.0712 27.8692 17.3451 27.8692H22.6547C22.9287 27.8692 23.1805 27.7778 23.3665 27.62C28.8279 22.9875 29.8786 17.3007 29.7382 15.0974C29.7372 15.0815 29.7367 15.0656 29.7367 15.0497C29.7367 13.4984 29.475 12.2007 29.043 11.1159C28.8898 10.7311 29.0775 10.2949 29.4623 10.1417C29.8472 9.98842 30.2834 10.1761 30.4366 10.561C30.9432 11.8329 31.234 13.3134 31.2367 15.0263C31.3961 17.6823 30.1669 23.8186 24.3368 28.7639C23.8599 29.1685 23.2571 29.3692 22.6547 29.3692H17.3451C16.7427 29.3692 16.1399 29.1685 15.663 28.7639C9.83287 23.8186 8.60376 17.6823 8.76317 15.0262C8.76985 10.6771 10.6356 7.88647 13.0066 6.20809C15.3431 4.55416 18.1242 4.00835 19.9922 4.00558L20.0077 4.00557Z" fill="#333333"/>
<path d="M23.2818 22.8919C24.1552 20.2303 25.7273 16.1775 25.7273 13.3465C25.7273 6.49313 22.1087 4.75557 20 4.75557C17.8913 4.75557 14.2727 6.49313 14.2727 13.3465C14.2727 16.1775 15.8447 20.2303 16.7182 22.8919H23.2818Z" fill="#B070F0"/>
<path fill-rule="evenodd" clip-rule="evenodd" d="M21.8619 22.6125C23.1298 19.6817 24.2273 16.0029 24.2273 12.7976C24.2273 9.55623 23.3913 7.75854 22.5323 6.79027C21.6686 5.81663 20.6562 5.53488 20 5.53488C19.3438 5.53488 18.3314 5.81663 17.4677 6.79027C16.6087 7.75854 15.7727 9.55623 15.7727 12.7976C15.7727 16.0029 16.8701 19.6817 18.138 22.6125C18.7668 24.0658 19.4154 25.2841 19.9475 26.1175C19.9652 26.1453 19.9827 26.1724 20 26.199C20.0172 26.1724 20.0347 26.1453 20.0525 26.1175C20.5846 25.2841 21.2332 24.0658 21.8619 22.6125ZM20 28.3758C21 28.3758 25.7273 19.788 25.7273 12.7976C25.7273 5.80719 22.1087 4.03488 20 4.03488C17.8913 4.03488 14.2727 5.80719 14.2727 12.7976C14.2727 19.788 19 28.3758 20 28.3758Z" fill="#333333"/>
<path fill-rule="evenodd" clip-rule="evenodd" d="M11.6135 22.8919C11.6135 22.4777 11.9493 22.1419 12.3635 22.1419H27.6363C28.0505 22.1419 28.3863 22.4777 28.3863 22.8919C28.3863 23.3062 28.0505 23.6419 27.6363 23.6419H12.3635C11.9493 23.6419 11.6135 23.3062 11.6135 22.8919Z" fill="#333333"/>
</svg>
