<svg width="40" height="40" viewBox="0 0 40 40" fill="none" xmlns="http://www.w3.org/2000/svg">
<path fill-rule="evenodd" clip-rule="evenodd" d="M10.6646 32.4012C10.5732 32.4012 10.483 32.3678 10.4122 32.3053L9.29012 31.3146C9.13956 31.1813 9.1113 30.9522 9.22548 30.7848L10.3058 29.197L11.0969 25.8874C11.1046 25.8544 11.1166 25.8226 11.1325 25.7927L11.4073 25.2705L9.92722 23.1943C9.86451 23.106 9.83974 22.995 9.85871 22.8872L10.0642 21.737C10.0936 21.5727 10.2198 21.4442 10.3805 21.4164L11.7719 21.1742L11.1271 19.8394L6.90702 19.3088C6.8091 19.2968 6.71969 19.2463 6.6566 19.1688L6.04195 18.4091C5.92816 18.2687 5.92235 18.0666 6.02763 17.9195L7.55108 15.7864L7.78254 14.4723L5.33635 14.1405C5.1436 14.1147 5 13.946 5 13.7464V12.5949C5 12.4589 5.06773 12.3324 5.17921 12.2596L9.29477 9.56812L10.0809 7.32765C10.1312 7.18446 10.2566 7.08304 10.4041 7.06713L11.6144 6.93548C11.7096 6.92474 11.806 6.95178 11.8834 7.00946L13.7045 8.37768L15.8062 7.90119L15.7605 7.46049C15.7389 7.25407 15.8759 7.06514 16.0748 7.02696L18.3259 6.59859L21.0152 4.10277C21.1572 3.97033 21.3728 3.96555 21.5203 4.09044L23.4289 5.70447C23.5218 5.78283 23.574 5.90135 23.5698 6.02465C23.5659 6.14795 23.5067 6.2625 23.4091 6.33449L21.2621 7.92068V10.2256C21.2621 10.3513 21.2045 10.4698 21.1065 10.5446L18.2431 12.7389L16.0319 14.1282L15.8581 15.2506L21.4719 20.3278C21.564 20.4113 21.6124 20.5342 21.602 20.6603L21.2865 24.4782L22.5263 24.8998C22.635 24.9368 22.7221 25.0211 22.7647 25.1305C22.8069 25.2399 22.7999 25.3632 22.7449 25.467L21.0164 28.7483C20.9947 28.7885 20.9668 28.8247 20.9335 28.8553L19.3594 30.2991C19.28 30.3723 19.1751 30.4105 19.0683 30.3986L17.671 30.2753L10.7749 32.3845C10.7385 32.3956 10.7013 32.4012 10.6646 32.4012Z" fill="white" stroke="#333333" stroke-width="1.5" stroke-linejoin="round"/>
<circle cx="7.3417" cy="34.5229" r="1.1" fill="#333333"/>
<path d="M32.4 16H21.6C21.1029 16 20.7 16.4029 20.7 16.9V25.9C20.7 26.3971 20.2971 26.8 19.8 26.8H18L26.537 31.9222C26.822 32.0932 27.178 32.0932 27.463 31.9222L36 26.8H34.2C33.7029 26.8 33.3 26.3965 33.3 25.8994V16.9006C33.3 16.4035 32.8971 16 32.4 16Z" fill="#FFA33F" stroke="#333333" stroke-width="1.5" stroke-linecap="round" stroke-linejoin="round"/>
<path d="M25.7156 21.3113C25.7156 21.8565 25.2737 22.2984 24.7285 22.2984C24.1834 22.2984 23.7415 21.8565 23.7415 21.3113C23.7415 20.7662 24.1834 20.3243 24.7285 20.3243C25.2737 20.3243 25.7156 20.7662 25.7156 21.3113Z" fill="#333333"/>
<path d="M30.1567 25.7531C30.1567 26.2983 29.7148 26.7402 29.1697 26.7402C28.6245 26.7402 28.1826 26.2983 28.1826 25.7531C28.1826 25.208 28.6245 24.7661 29.1697 24.7661C29.7148 24.7661 30.1567 25.208 30.1567 25.7531Z" fill="#333333"/>
<path fill-rule="evenodd" clip-rule="evenodd" d="M29.8708 20.6605C30.1213 20.9111 30.1213 21.3173 29.8708 21.5679L24.9355 26.5032C24.6849 26.7537 24.2787 26.7537 24.0281 26.5032C23.7776 26.2526 23.7776 25.8464 24.0281 25.5958L28.9634 20.6605C29.214 20.41 29.6202 20.41 29.8708 20.6605Z" fill="#333333"/>
</svg>
