<svg width="40" height="40" viewBox="0 0 40 40" fill="none" xmlns="http://www.w3.org/2000/svg">
<path d="M26.125 14.5L26.125 8.99991C26.125 7.89534 25.2296 6.99991 24.125 6.99991L19.2 6.99991C19.0895 6.99991 19.0005 7.08954 18.9926 7.19971C18.9174 8.24357 18.2491 9.99991 16 9.99991C13.7509 9.99991 13.0826 8.24357 13.0074 7.19971C12.9995 7.08954 12.9105 6.99991 12.8 6.99991L8 6.99991C6.89543 6.99991 6 7.89534 6 8.99991L6 28.9999C6 30.1045 6.89543 30.9999 8 30.9999L12.8 30.9999C12.9105 30.9999 12.9995 30.9103 13.0074 30.8001C13.0826 29.7562 13.7509 27.9999 16 27.9999C18.2491 27.9999 18.9174 29.7562 18.9926 30.8001C19.0005 30.9103 19.0895 30.9999 19.2 30.9999L22.5449 30.9999C22.8445 30.9999 23.1402 30.9326 23.4103 30.803L24.9904 30.0446C25.6839 29.7117 26.125 29.0107 26.125 28.2415L26.125 14.5Z" fill="white"/>
<path d="M26 28.5C26 29.8807 24.8807 31 23.5 31L20.2457 31C19.5136 31 18.8754 30.5017 18.6979 29.7914C18.5736 29.2944 18.2182 28.8873 17.7425 28.697L16.9285 28.3714C16.3324 28.133 15.6676 28.133 15.0715 28.3714L14.2575 28.697C13.7818 28.8873 13.4264 29.2944 13.3021 29.7915C13.1246 30.5017 12.4864 31 11.7543 31L8.5 31C7.11929 31 6 29.8807 6 28.5L6 22L26 22L26 28.5Z" fill="#FF7262"/>
<line x1="6.125" y1="22.25" x2="26.125" y2="22.25" stroke="#333333" stroke-width="1.5"/>
<path d="M23 20L23 29.9296C23 30.5984 23.3342 31.2228 23.8906 31.5937L27.8906 34.2604C28.5624 34.7083 29.4376 34.7083 30.1094 34.2604L34.1094 31.5937C34.6658 31.2228 35 30.6002 35 29.9315L35 20C35 18.8954 34.1046 18 33 18L27 18L25 18C23.8954 18 23 18.8954 23 20Z" fill="white" stroke="#333333" stroke-width="1.5" stroke-linecap="round"/>
<circle cx="26.6458" cy="22.781" r="1" fill="#333333"/>
<circle cx="31.2881" cy="28.074" r="1" fill="#333333"/>
<path d="M31.5408 22.468L26.4602 28.4784" stroke="#333333" stroke-width="1.5" stroke-linecap="round"/>
<path d="M26.125 14.5L26.125 8.99991C26.125 7.89534 25.2296 6.99991 24.125 6.99991L19.2 6.99991C19.0895 6.99991 19.0005 7.08954 18.9926 7.19971C18.9174 8.24357 18.2491 9.99991 16 9.99991C13.7509 9.99991 13.0826 8.24357 13.0074 7.19971C12.9995 7.08954 12.9105 6.99991 12.8 6.99991L8 6.99991C6.89543 6.99991 6 7.89534 6 8.99991L6 28.9999C6 30.1045 6.89543 30.9999 8 30.9999L12.8 30.9999C12.9105 30.9999 12.9995 30.9103 13.0074 30.8001C13.0826 29.7562 13.7509 27.9999 16 27.9999C18.2491 27.9999 18.9174 29.7562 18.9926 30.8001C19.0005 30.9103 19.0895 30.9999 19.2 30.9999L23 30.9999" stroke="#333333" stroke-width="1.5" stroke-linecap="round" stroke-linejoin="round"/>
<path d="M20 15L17.75 16.125M17.75 16.125L14 18L12 17.25M17.75 16.125L15.2 15" stroke="#333333" stroke-width="1.5" stroke-linecap="round" stroke-linejoin="round"/>
</svg>
