<svg width="20" height="20" viewBox="0 0 100 100" fill="none" xmlns="http://www.w3.org/2000/svg"><g clip-path="url(#clip0_5283_69969)">
<path d="M31.2717 73.4551C31.2717 73.4551 33.4704 69.6298 35.6859 67.09C37.9015 64.5489 40.1352 63.2919 40.1352 63.2919L40.3116 63.2971L40.1585 60.385C40.1585 60.385 38.3594 57.3886 37.3113 54.8591C36.2619 52.3297 35.9622 50.2659 35.9622 50.2659C35.9622 50.2659 34.3123 50.4307 33.0333 49.114C31.4079 47.4407 30.2716 44.0175 32.6752 41.8578C32.7388 41.8007 32.805 41.7527 32.8737 41.7099H32.7258C32.7258 41.7099 31.7413 36.3929 30.7425 33.4276C29.9175 30.9747 28.9226 31.1783 29.2313 27.9342C29.7385 22.6171 34.752 19.932 34.752 19.932C34.752 19.932 33.8401 19.2471 33.556 18.557C33.2719 17.867 33.6157 17.173 33.6157 17.173C33.6157 17.173 35.1217 17.8553 37.9689 16.8409C41.2416 15.6735 46.1929 12.7549 51.1155 12.1932C55.0135 11.7483 57.6376 12.6628 58.9335 13.5578C60.6989 14.7771 60.5964 16.4557 63.3801 19.194C64.9484 20.7363 66.9667 21.2707 67.998 23.0063C69.0993 24.8586 69.8334 28.1715 69.3652 32.4975C68.9203 36.603 67.2975 41.7774 67.2975 41.7774H66.5426C66.6827 41.8266 66.8189 41.8824 66.9499 41.9473C68.0525 42.4908 68.8243 43.6167 68.8346 44.1654C68.9436 49.8677 64.2531 50.6213 64.2531 50.6213C64.2531 50.6213 63.4268 53.8577 62.3126 56.2289C61.197 58.6001 59.7909 60.1048 59.7909 60.1048C59.7909 60.1048 59.7001 61.8767 59.7779 63.8977L59.8687 63.9003C59.8687 63.9003 62.6745 65.2727 64.938 67.8332C67.2028 70.3951 68.9267 74.1478 68.9267 74.1478C68.9267 74.1478 72.704 75.3347 76.9548 76.7395C80.8904 78.0392 85.3448 79.6399 88.6486 81.7231C95.7414 73.0919 100 62.044 100 50C100 22.3862 77.6138 0 50 0C22.3862 0 0 22.3862 0 50C0 61.9818 4.21574 72.979 11.2424 81.5895C14.4308 79.4985 18.4429 77.9834 22.0386 76.6772C27.0638 74.8521 31.273 73.4551 31.273 73.4551H31.2717Z" fill="white"/>
<path d="M36.4409 40.2765C37.4384 38.7589 37.8094 34.643 39.3323 32.897C40.0016 32.1304 41.8111 30.8099 42.5181 30.1172C44.3886 28.287 45.8647 25.8691 48.2995 25.9897C49.9417 26.0714 52.2805 27.4581 54.2275 28.0353C56.0759 28.584 57.5404 28.2831 58.8894 29.8773C61.1439 32.5403 61.6381 37.8236 63.4995 40.1961C64.3933 41.335 65.5555 41.4193 66.5439 41.7747H67.2989C67.2989 41.7747 68.9216 36.6017 69.3665 32.4962C69.8348 28.1702 69.1006 24.856 67.9993 23.005C66.9681 21.2694 64.951 20.7362 63.3815 19.1926C60.5978 16.4544 60.7003 14.7758 58.9348 13.5565C57.639 12.6615 55.0149 11.747 51.1169 12.1919C46.1942 12.7536 41.2417 15.6722 37.9703 16.8396C35.123 17.8553 33.617 17.1717 33.617 17.1717C33.617 17.1717 33.2733 17.8657 33.5574 18.5557C33.8414 19.2458 34.7533 19.9307 34.7533 19.9307C34.7533 19.9307 29.7399 22.6145 29.2327 27.9328C28.9239 31.177 29.9176 30.9734 30.7438 33.4263C31.7427 36.3916 32.7272 41.7073 32.7272 41.7073H32.8751C33.8596 41.1041 35.4071 41.8461 36.4409 40.2752V40.2765Z" fill="#441D39"/>
<path d="M68.9266 74.1478C68.9266 74.1478 67.2027 70.3951 64.9379 67.8333C62.6744 65.2714 59.8686 63.9003 59.8686 63.9003L59.7778 63.8977C59.8362 65.3972 59.9854 67.0329 60.3356 68.1835C61.1541 70.8868 63.0674 70.9205 63.0674 70.9205L64.7965 75.0454C64.7965 75.0454 66.4815 79.627 67.0367 88.1765C67.2118 90.8733 67.2741 93.9657 67.2767 96.9349C75.6991 93.8334 83.0552 88.5306 88.6498 81.7232C85.3447 79.6399 80.8916 78.0405 76.956 76.7395C72.7052 75.3347 68.9279 74.1478 68.9279 74.1478H68.9266Z" fill="#4F88A2"/>
<path d="M32.9126 97.0035C32.919 94.7867 32.9644 92.4972 33.0734 90.3466C33.5002 81.9747 34.905 75.7238 34.905 75.7238L36.6561 70.8179C36.6561 70.8179 39.2686 69.9047 40.0391 67.435C40.2583 66.7345 40.3621 65.8628 40.3984 64.9743L40.3102 63.2971L40.1338 63.2919C40.1338 63.2919 37.9014 64.5488 35.6846 67.0899C33.469 69.6311 31.2704 73.4551 31.2704 73.4551C31.2704 73.4551 27.0624 74.8534 22.0359 76.6772C18.4415 77.9834 14.4294 79.4998 11.2397 81.5895C16.8888 88.5111 24.3539 93.8917 32.91 97.0035H32.9126Z" fill="#4F88A2"/>
<path d="M64.7966 75.0454C64.7966 75.0454 64.3802 77.3115 61.638 79.0912C58.7687 80.9526 53.6528 82.1292 49.83 82.2122C45.4003 82.3082 41.4232 80.8164 38.5993 78.8616C36.6575 77.5165 34.905 75.7251 34.905 75.7251C34.905 75.7251 33.4989 81.9748 33.0734 90.3479C32.9632 92.4986 32.9191 94.7881 32.9126 97.0049C38.2439 98.9428 43.9981 100.001 50 100.001C56.0019 100.001 61.8923 98.9182 67.2754 96.9361C67.2728 93.967 67.2106 90.8746 67.0355 88.1778C66.4803 79.6283 64.7953 75.0467 64.7953 75.0467L64.7966 75.0454Z" fill="white"/>
<path d="M62.3126 56.229C63.4282 53.8578 64.2532 50.6214 64.2532 50.6214C64.2532 50.6214 68.9437 49.8677 68.8347 44.1655C68.8243 43.6168 68.0525 42.4908 66.9499 41.9473C66.8189 41.8825 66.6827 41.8267 66.5426 41.7761C65.5555 41.4207 64.392 41.3351 63.4982 40.1975C61.6368 37.825 61.1426 32.5417 58.8881 29.8786C57.5391 28.2844 56.0746 28.5854 54.2262 28.0367C52.2792 27.4594 49.9404 26.0715 48.2982 25.9911C45.8634 25.8717 44.3873 28.2883 42.5168 30.1186C41.8098 30.8113 40.0003 32.1318 39.331 32.8984C37.8068 34.6431 37.4371 38.7602 36.4396 40.2779C35.4058 41.8488 33.8583 41.1068 32.8738 41.71C32.805 41.7528 32.7389 41.8008 32.6753 41.8578C30.2717 44.0189 31.408 47.4408 33.0333 49.1141C34.3123 50.4307 35.9623 50.266 35.9623 50.266C35.9623 50.266 36.2619 52.3297 37.3113 54.8592C38.3594 57.3899 40.1586 60.385 40.1586 60.385C40.1586 60.385 42.0005 62.0363 44.4846 63.4256C46.2331 64.4036 48.3008 65.252 50.266 65.3013C51.7499 65.3376 53.4868 64.6151 55.0148 63.7512C57.1993 62.5163 58.9621 60.9947 58.9621 60.9947C58.9621 60.9947 57.9308 62.2854 56.373 63.7927C54.4182 65.6826 51.6332 67.9111 49.0038 68.3651C44.9023 69.0721 40.3985 64.977 40.3985 64.977C40.3622 65.8642 40.2572 66.7359 40.0392 67.4364C39.27 69.9061 36.6563 70.8193 36.6563 70.8193L34.9051 75.7252C34.9051 75.7252 36.6576 77.5165 38.5994 78.8617C41.4233 80.8165 45.3991 82.3082 49.8301 82.2122C53.6528 82.1305 58.7688 80.954 61.6381 79.0913C64.3803 77.3116 64.7967 75.0455 64.7967 75.0455L63.0676 70.9205C63.0676 70.9205 61.1543 70.8881 60.3358 68.1835C59.9868 67.0317 59.8364 65.3959 59.778 63.8977C59.7002 61.8768 59.791 60.1049 59.791 60.1049C59.791 60.1049 61.1971 58.6002 62.3126 56.229ZM54.0848 35.7898C56.8776 34.4926 58.9595 35.9389 59.0477 35.9999C59.2825 36.1672 59.337 36.4928 59.1709 36.7276C59.0684 36.8703 58.9089 36.9468 58.7455 36.9468C58.6417 36.9468 58.5366 36.9157 58.4458 36.8521C58.3719 36.8015 56.7465 35.7041 54.5258 36.7367C54.2638 36.8586 53.9538 36.7445 53.8331 36.4837C53.7112 36.2217 53.8254 35.9117 54.0861 35.7911L54.0848 35.7898ZM49.917 41.0419C50.0455 40.7838 50.3594 40.6787 50.6175 40.8084C50.8756 40.9369 50.9794 41.2508 50.851 41.5089C50.8173 41.575 50.7809 41.6555 50.7407 41.745C50.2893 42.7581 49.4708 45.1526 49.8068 46.547C49.9417 47.1061 50.3192 47.4265 50.7187 47.7651C51.1286 48.114 51.593 48.5083 51.6423 49.1543C51.6877 49.751 51.3673 50.4099 50.6019 51.2907C50.4995 51.4101 50.3542 51.4697 50.2076 51.4697C50.087 51.4697 49.965 51.4282 49.8652 51.3413C49.6472 51.1519 49.6252 50.8224 49.8133 50.6058C50.4904 49.8262 50.6149 49.4293 50.6006 49.2321C50.5851 49.0311 50.3788 48.8456 50.0416 48.5589C49.5798 48.1672 49.0051 47.6781 48.7911 46.7896C48.4149 45.2291 49.1245 42.9617 49.6096 41.7411C49.7328 41.4298 49.8431 41.1859 49.9157 41.0406L49.917 41.0419ZM40.466 36.1244C40.5516 36.0596 42.5985 34.5652 45.4224 35.7923C45.687 35.9078 45.8077 36.2139 45.6922 36.4785C45.5768 36.7419 45.2693 36.8638 45.006 36.7483C42.7555 35.7703 41.1574 36.9118 41.0899 36.9598C40.9965 37.0285 40.8889 37.061 40.7812 37.061C40.6217 37.061 40.4634 36.9883 40.3609 36.8495C40.1897 36.6186 40.2364 36.2943 40.466 36.1218V36.1244ZM43.1615 44.8309C42.4403 44.8309 41.8552 44.0876 41.8552 43.1705C41.8552 42.5518 42.1225 42.0135 42.5168 41.7281C42.7075 41.5906 42.9267 41.5115 43.1615 41.5115C43.3963 41.5115 43.6194 41.5919 43.8101 41.732C44.2031 42.0187 44.469 42.5544 44.469 43.1718C44.469 44.0889 43.884 44.8322 43.1615 44.8322V44.8309ZM55.6933 53.3454C55.644 53.5607 54.4246 58.6261 50.3101 58.892C50.1881 58.8998 50.0688 58.9037 49.9508 58.9037C45.8881 58.9037 44.5209 54.3131 44.5066 54.2651C44.4573 54.0926 44.5001 53.9071 44.6195 53.7722C44.7401 53.6386 44.9191 53.5763 45.0968 53.6061C45.1163 53.6087 46.9985 53.9213 50.1051 53.7112C52.5749 53.5426 54.9954 52.7409 55.02 52.7331C55.1977 52.6735 55.3962 52.715 55.5363 52.8421C55.6764 52.9692 55.7361 53.1625 55.6933 53.3454ZM56.7868 44.8685C56.0655 44.8685 55.4805 44.1253 55.4805 43.2082C55.4805 42.5829 55.7529 42.0394 56.155 41.7554C56.3431 41.623 56.5585 41.5478 56.7881 41.5478C57.0177 41.5478 57.2356 41.6243 57.425 41.7579C57.8258 42.042 58.0956 42.5842 58.0956 43.2082C58.0956 44.1253 57.5106 44.8685 56.7881 44.8685H56.7868Z" fill="#C1735C"/>
<path fill-rule="evenodd" clip-rule="evenodd" d="M49.9157 41.0419C50.0441 40.7838 50.358 40.68 50.6162 40.8085H50.6149C50.873 40.9382 50.9768 41.2508 50.8484 41.5089C50.8159 41.5751 50.7783 41.6555 50.7381 41.745L49.6096 41.7424C49.7341 41.4311 49.8431 41.1872 49.9157 41.0419ZM50.0415 48.56C49.5797 48.1683 49.0051 47.6793 48.7911 46.7907L48.7937 46.792C48.4162 45.2316 49.127 42.9641 49.6122 41.7435L50.7407 41.7461C50.2893 42.7592 49.4708 45.155 49.8067 46.5482C49.9414 47.1051 50.3179 47.4253 50.7168 47.7646L50.7186 47.7662L50.7206 47.7679C51.13 48.1164 51.593 48.5105 51.6422 49.1554C51.6863 49.7521 51.3659 50.4111 50.6019 51.2919C50.4994 51.4099 50.3541 51.4709 50.2076 51.4709C50.0856 51.4709 49.9637 51.4281 49.8651 51.3424C49.6472 51.1544 49.6238 50.8249 49.8132 50.607C50.4903 49.8261 50.6149 49.4291 50.6006 49.2333C50.585 49.0309 50.3775 48.8454 50.0415 48.56Z" fill="#A5503C"/>
<path d="M45.0046 36.7496C45.2692 36.8638 45.5766 36.7431 45.6908 36.4798C45.8062 36.2152 45.6843 35.9078 45.421 35.7936C42.5971 34.5665 40.5502 36.0608 40.4645 36.1257C40.235 36.2982 40.1883 36.6225 40.3595 36.8534C40.462 36.9909 40.6189 37.0648 40.7798 37.0648C40.8874 37.0648 40.9964 37.0324 41.0885 36.9636C41.1559 36.9143 42.7553 35.7741 45.0046 36.7522V36.7496Z" fill="#441D39"/>
<path d="M54.5244 36.7354C56.7438 35.7041 58.3704 36.8002 58.4444 36.8508C58.5352 36.9157 58.6402 36.9455 58.744 36.9455C58.9074 36.9455 59.0683 36.869 59.1695 36.7263C59.3368 36.4915 59.281 36.1659 59.0462 35.9986C58.9593 35.9363 56.8761 34.4913 54.0833 35.7884C53.8226 35.9091 53.7085 36.2204 53.8304 36.4811C53.951 36.7419 54.261 36.856 54.5231 36.7341L54.5244 36.7354Z" fill="#441D39"/>
<path d="M55.0147 63.7498C53.4854 64.6137 51.7498 65.3375 50.2659 65.2999C48.3007 65.2506 46.233 64.4022 44.4844 63.4242C42.0017 62.0349 40.1584 60.3837 40.1584 60.3837L40.3115 63.2958L40.3997 64.973C40.3997 64.973 44.9034 69.0694 49.005 68.3624C51.6343 67.9097 54.4193 65.6799 56.3741 63.79C57.9333 62.2827 58.9633 60.992 58.9633 60.992C58.9633 60.992 57.2017 62.5136 55.016 63.7485L55.0147 63.7498Z" fill="#A5503C"/>
<path fill-rule="evenodd" clip-rule="evenodd" d="M43.8074 41.7309L43.8086 41.7309C43.618 41.5921 43.3961 41.5104 43.1601 41.5104C42.924 41.5104 42.7061 41.5895 42.5154 41.727V41.7283L42.5141 41.7283C42.1198 42.0136 41.8525 42.5519 41.8525 43.1707C41.8525 44.0878 42.4376 44.831 43.1588 44.831C43.88 44.831 44.4663 44.0878 44.4663 43.1707C44.4663 42.5533 44.2004 42.0163 43.8074 41.7309Z" fill="#441D39"/>
<path fill-rule="evenodd" clip-rule="evenodd" d="M57.422 41.7577C57.234 41.6243 57.0175 41.5479 56.7855 41.5479C56.5533 41.5479 56.3406 41.6231 56.1525 41.7554H56.1533C55.7514 42.0383 55.4792 42.5829 55.4792 43.2079C55.4792 44.125 56.0643 44.8683 56.7855 44.8683C57.5067 44.8683 58.093 44.125 58.093 43.2079C58.093 42.584 57.8219 42.0418 57.4224 41.7577L57.422 41.7577Z" fill="#441D39"/>
<path d="M55.5337 52.8421C55.3936 52.7149 55.1951 52.6734 55.0174 52.7331C54.9928 52.7409 52.5723 53.5425 50.1025 53.7112C46.9958 53.9213 45.1123 53.6087 45.0942 53.6061C44.9165 53.5763 44.7375 53.6385 44.6168 53.7721C44.4975 53.9057 44.4547 54.0925 44.504 54.265C44.5183 54.313 45.8854 58.905 49.9481 58.9037C50.0649 58.9037 50.1855 58.8998 50.3074 58.892C54.422 58.6261 55.6413 53.5607 55.6906 53.3454C55.7334 53.1612 55.6725 52.9692 55.5337 52.8421Z" fill="#A5503C"/>
</g>
<defs>
<clipPath id="clip0_5283_69969">
  <rect width="100" height="100" fill="white"/>
</clipPath>
</defs>
</svg>
